<svg id="Livello_1" data-name="Livello 1" xmlns="http://www.w3.org/2000/svg" viewBox="0 0 600 600"><path d="M131.27,532.83h-5.19l3.84-27.38h5.19Z"/><path d="M157.21,517.85l-2.1,15h-5l2-14.23c.32-2.49-.47-3.17-1.7-3.17-2.06,0-4,2.42-5.51,5.39l-1.7,12h-5l2.93-21h4.32l-.2,3.88c1.86-2.69,4.28-4.48,7.21-4.48C155.91,511.27,157.81,513.73,157.21,517.85Z"/><path d="M178.1,513.93l-2.3,2.81a8.65,8.65,0,0,0-5-1.7c-2.18,0-3.41.83-3.41,2.22s1.07,1.82,4.12,2.81c3.72,1.19,5.66,3,5.66,6.3,0,4.24-3.56,7-9.11,7a11.34,11.34,0,0,1-8.24-3.25l2.62-2.73a8.57,8.57,0,0,0,5.74,2.18c2.85,0,3.92-1.43,3.92-2.7,0-1.66-.95-2.22-4.28-3.33-3.8-1.23-5.46-2.93-5.46-5.94,0-3.21,2.81-6.38,8.44-6.38A10.89,10.89,0,0,1,178.1,513.93Z"/><path d="M184,511.87h4.35l0,2.45a8.31,8.31,0,0,1,6.26-3.05c4.09,0,6.46,3,6.46,8.2,0,6-2.85,13.95-11.13,13.95a11.81,11.81,0,0,1-3.88-.63L184.83,541l-5,.59Zm11.88,7.52c0-3.28-1.31-4.31-3-4.31s-3.33,1.14-4.67,2.69l-1.55,11.29a8.56,8.56,0,0,0,3.13.56C194.22,529.62,195.88,523.67,195.88,519.39Z"/><path d="M209.83,532.83h-5l2.93-21h5Zm-1.63-28.17a3.37,3.37,0,0,1,3.45-3.41A2.68,2.68,0,0,1,214.5,504a3.36,3.36,0,0,1-3.44,3.37A2.68,2.68,0,0,1,208.2,504.66Z"/><path d="M231.86,511.63l-1.47,4.87a6.3,6.3,0,0,0-1.74-.23c-2.66,0-4.24,2.49-5.55,6.22l-1.46,10.34h-5l2.93-21h4.32l-.15,4.08c1.54-3.09,3.68-4.64,6-4.64A7.05,7.05,0,0,1,231.86,511.63Z"/><path d="M236.65,525.14c.12,3.25,1.78,4.36,4.08,4.36a9.12,9.12,0,0,0,5.47-1.94l1.94,3.17a13.59,13.59,0,0,1-8,2.69c-5.7,0-8.63-3.41-8.63-8.72,0-5.7,3-13.43,11.41-13.43,4.79,0,7.25,2.58,7.25,5.55C250.2,522.72,243.54,524.43,236.65,525.14Zm8.4-8.12a2.1,2.1,0,0,0-2.38-2.14c-3.6,0-5.23,3.52-5.78,6.89C242.51,521.26,245.05,519.71,245.05,517Z"/><path d="M274.21,503.51l-4.12,29.32h-4.4l0-3.21a7.5,7.5,0,0,1-6.3,3.8c-4.36,0-6.62-3.25-6.62-8.4,0-5.59,2.74-13.75,9.95-13.75a6.4,6.4,0,0,1,5,2.3L269.3,503ZM258,525.18c0,3.21,1.15,4.4,2.86,4.4,2.13,0,3.72-1.83,5.27-4.28l1.15-8.24a4.13,4.13,0,0,0-3.53-2C259.31,515.08,258,521.38,258,525.18Z"/><path d="M307.25,519.47c0,6-2.73,13.95-11.81,13.95a22.5,22.5,0,0,1-8-1.58l4-28.37,5-.56-1.5,10.86a8.59,8.59,0,0,1,5.9-2.5C304.87,511.27,307.25,514.24,307.25,519.47Zm-12.88-1.7-1.54,11.29a8.5,8.5,0,0,0,3.09.56c4.51,0,6.14-6,6.14-10.23,0-3.28-1.31-4.31-3-4.31C297.19,515.08,295.72,516.27,294.37,517.77Z"/><path d="M321,532.94c-2.18,5-5.87,8-12,8.52l-.16-3.68c4.24-.64,5.83-2,7.49-4.95h-1.78l-3.64-21H316l2.06,17.47,7.14-17.47h5.19Z"/><path d="M359.34,513.77l-2.53,3a5.28,5.28,0,0,0-3.84-1.51c-4.76,0-6,5.67-6,9.59,0,3.25,1.43,4.44,3.73,4.44a8.13,8.13,0,0,0,4.47-1.55l1.91,3.37a11.81,11.81,0,0,1-6.93,2.3c-5.35,0-8.45-3.37-8.45-8.83s3.1-13.32,11.26-13.32A8.85,8.85,0,0,1,359.34,513.77Z"/><path d="M380.19,517.77l-2.14,15.06h-5l2-14.23c.31-2.49-.44-3.17-1.63-3.17-2.14,0-4.08,2.42-5.67,5.39l-1.62,12h-5l4.12-29.32,5-.52-1.78,12.56c1.62-2.54,4-4.28,6.77-4.28C378.84,511.27,380.74,513.73,380.19,517.77Z"/><path d="M404.28,513.29l-2,14.07c-.19,1.42-.07,2.18,1.11,2.65l-1.42,3.33c-2.22-.24-3.85-1.23-4.32-3.49a7.75,7.75,0,0,1-6.26,3.57c-4.36,0-6.74-3.25-6.74-8.2,0-5.91,3.09-14,11.65-14A17.12,17.12,0,0,1,404.28,513.29Zm-14.43,11.93c0,3.17,1.15,4.36,2.9,4.36s3.32-1.35,4.75-3.33l1.5-10.7a6.44,6.44,0,0,0-2.81-.55C391.56,515,389.85,520.86,389.85,525.22Z"/><path d="M427.09,517.85l-2.1,15h-5l2-14.23c.32-2.49-.48-3.17-1.7-3.17-2.06,0-4,2.42-5.51,5.39l-1.7,12h-5l2.93-21h4.32l-.2,3.88c1.86-2.69,4.27-4.48,7.21-4.48C425.79,511.27,427.69,513.73,427.09,517.85Z"/><path d="M451.42,513.29l-2.73,18.42c-1,7.14-4.52,9.83-10.39,9.83a15.35,15.35,0,0,1-7.56-2.18l1.74-3.53a11.86,11.86,0,0,0,5.71,1.67c2.49,0,4.95-.75,5.58-5.31l.32-2.3a7.67,7.67,0,0,1-5.74,2.94c-4.36,0-6.78-3.21-6.78-8,0-6,3.17-13.55,11.81-13.55A17,17,0,0,1,451.42,513.29ZM436.8,524.74c0,3.13,1.27,4.24,3,4.24,1.9,0,3.45-1.46,4.83-3.36l1.59-10.07a7.09,7.09,0,0,0-2.89-.55C438.58,515,436.8,520.39,436.8,524.74Z"/><path d="M460.37,525.14c.12,3.25,1.79,4.36,4.08,4.36a9.1,9.1,0,0,0,5.47-1.94l1.94,3.17a13.59,13.59,0,0,1-8,2.69c-5.71,0-8.64-3.41-8.64-8.72,0-5.7,3-13.43,11.41-13.43,4.8,0,7.25,2.58,7.25,5.55C473.92,522.72,467.27,524.43,460.37,525.14Zm8.4-8.12a2.09,2.09,0,0,0-2.37-2.14c-3.61,0-5.23,3.52-5.79,6.89C466.24,521.26,468.77,519.71,468.77,517Z"/><path d="M109.32,457.7c0,9.59-6.26,17.52-25.83,17.52H66l7.68-54.91H89.75c12.52,0,20.76,3.32,20.76,12.51,0,7.93-5.94,11.89-12,13.4C104,447.25,109.32,449.94,109.32,457.7Zm-13.07-.94c0-4.28-3.33-5.87-8.32-5.87H82.06L80,465.79h4.6C94,465.79,96.25,461.91,96.25,456.76Zm1.11-22.59c0-3.49-2.7-4.67-7.45-4.67H85.07l-1.74,12.75h4.76C94.74,442.25,97.36,438.77,97.36,434.17Z"/><path d="M128,459.92c.32,5.63,3.41,7.45,7.53,7.45,3.56,0,6.81-1.26,10.7-3.88l4.43,7.45A28.23,28.23,0,0,1,134,476.56c-12.28,0-18.3-7.13-18.3-17.82,0-11.41,6.18-26.94,23.85-26.94,10.22,0,15.53,5.15,15.53,11.49C155,455.09,141.25,458.58,128,459.92Zm14.58-16.08c0-1.74-.95-3.73-4-3.73-6,0-8.88,6.18-10,12.21C139.11,451.6,142.6,447.8,142.6,443.84Z"/><path d="M171.2,459.92c.32,5.63,3.41,7.45,7.53,7.45,3.57,0,6.82-1.26,10.7-3.88l4.43,7.45a28.22,28.22,0,0,1-16.71,5.62c-12.29,0-18.31-7.13-18.31-17.82,0-11.41,6.18-26.94,23.85-26.94,10.22,0,15.53,5.15,15.53,11.49C198.22,455.09,184.44,458.58,171.2,459.92Zm14.58-16.08c0-1.74-.95-3.73-4-3.73-6,0-8.87,6.18-10,12.21C182.3,451.6,185.78,447.8,185.78,443.84Z"/><path d="M244.58,430.29H231.27l-6.35,44.93H212.17l6.34-44.93h-14l1.43-10h41.44Z"/><path d="M242,458.66c0-11.73,5.71-26.86,23.46-26.86,11.17,0,17.67,6.89,17.59,17.9-.08,11.57-5.79,26.86-23.45,26.86C248.38,476.56,242,469.83,242,458.66Zm28.45-9.75c0-5.55-2-7.92-5.86-7.92-8.33,0-10,12-10,18.46,0,5.54,1.9,7.92,5.87,7.92C268.67,467.37,270.33,455.33,270.41,448.91Z"/><path d="M330.63,436.23,325.4,472c-2.14,14.81-8.88,20.92-22.11,20.92a31.81,31.81,0,0,1-15.85-4.68l4.2-8.16a24.29,24.29,0,0,0,11.41,3.33c4.6,0,9-1.35,10.23-9.59l.55-4a14.78,14.78,0,0,1-11.09,5.47c-9,0-13.79-6.66-13.79-16.33,0-11.64,6.42-27.09,24.48-27.09A35.89,35.89,0,0,1,330.63,436.23Zm-28.92,22.35c0,5.7,2.22,7.37,4.91,7.37,3.17,0,5.86-2.38,8.24-5.87l2.93-18.62a13.69,13.69,0,0,0-4.75-.79C304.64,440.67,301.71,451.13,301.71,458.58Z"/><path d="M348.62,459.92c.31,5.63,3.4,7.45,7.52,7.45,3.57,0,6.82-1.26,10.7-3.88l4.44,7.45a28.27,28.27,0,0,1-16.72,5.62c-12.29,0-18.31-7.13-18.31-17.82,0-11.41,6.18-26.94,23.85-26.94,10.23,0,15.54,5.15,15.54,11.49C375.64,455.09,361.85,458.58,348.62,459.92Zm14.58-16.08c0-1.74-1-3.73-4.05-3.73-6,0-8.87,6.18-10,12.21C359.71,451.6,363.2,447.8,363.2,443.84Z"/><path d="M395.12,461.27c-.55,4,.48,5.39,2.85,5.39a11,11,0,0,0,4.76-1.35l3.25,8.16a23.75,23.75,0,0,1-11.49,3.09c-8.72,0-13.07-5.46-11.73-15.29l2.78-19.41h-5.79l1.19-8.72h6.34l2.61-9.35,10.62-1.19L399,433.14h9.66l-2.61,8.72h-8.24Z"/><path d="M451.14,444.71l-4.27,30.51H434.58l3.89-27.82c.63-4.27-.56-5.38-2.38-5.38-3.25,0-6.42,4.12-9.43,10.06l-3.25,23.14H411.13l8.24-58.8,12.44-1.27-3.48,25c3-5,7.92-8.39,13.39-8.39C448.53,431.8,452.25,436.63,451.14,444.71Z"/><path d="M470.32,459.92c.31,5.63,3.4,7.45,7.52,7.45,3.57,0,6.82-1.26,10.7-3.88l4.44,7.45a28.25,28.25,0,0,1-16.72,5.62c-12.28,0-18.31-7.13-18.31-17.82,0-11.41,6.19-26.94,23.86-26.94,10.22,0,15.53,5.15,15.53,11.49C497.34,455.09,483.55,458.58,470.32,459.92Zm14.58-16.08c0-1.74-.95-3.73-4-3.73-6,0-8.87,6.18-10,12.21C481.41,451.6,484.9,447.8,484.9,443.84Z"/><path d="M534,432.59l-3.56,12a13.22,13.22,0,0,0-3.49-.55c-5.23,0-8.08,5-10.38,11.64l-2.77,19.5H501.54l5.86-42.08h10.7l-.16,7.85c2.93-5.95,7.29-9,11.88-9A13.57,13.57,0,0,1,534,432.59Z"/><polygon points="248.11 144.47 252.59 136.73 248.11 128.98 239.17 128.98 234.7 136.73 239.17 144.47 248.11 144.47"/><polygon points="255.98 178.2 267.91 178.2 273.87 167.87 267.91 157.54 255.98 157.54 250.02 167.87 255.98 178.2"/><polygon points="294.23 198.5 287.01 211.34 287 211.37 286.97 211.41 271.87 211.41 264.42 198.5 271.87 185.59 286.77 185.59 294.23 198.5"/><polygon points="327.78 256.68 312.87 256.68 305.42 269.59 312.87 282.5 327.78 282.5 335.23 269.59 327.78 256.68"/><polygon points="337.38 299.11 331.41 309.43 337.38 319.76 349.3 319.76 355.26 309.43 349.3 299.11 337.38 299.11"/><polygon points="361.88 341.53 357.41 349.27 361.88 357.02 370.83 357.02 375.3 349.27 370.83 341.53 361.88 341.53"/><polygon points="217.41 229.09 212.94 221.34 204 221.34 199.52 229.09 204 236.83 212.94 236.83 217.41 229.09"/><polygon points="235.3 229.09 242.01 240.71 255.42 240.71 262.13 229.09 255.42 217.47 242.01 217.47 235.3 229.09"/><polygon points="329.32 229.09 336.03 240.71 349.45 240.71 356.15 229.09 349.45 217.47 336.03 217.47 329.32 229.09"/><polygon points="371.02 221.34 366.55 229.09 371.02 236.83 379.96 236.83 384.43 229.09 379.96 221.34 371.02 221.34"/><polygon points="395.94 58.46 386.87 58.46 382.33 66.32 386.87 74.17 395.94 74.17 400.48 66.32 395.94 58.46"/><polygon points="378 110.17 383.97 99.83 378 89.49 366.06 89.49 360.1 99.83 366.06 110.17 378 110.17"/><polygon points="353.98 156.67 361.38 143.86 353.98 131.04 339.18 131.04 331.78 143.86 339.18 156.67 353.98 156.67"/><polygon points="330.88 201.35 339.7 186.05 330.88 170.76 313.21 170.76 304.38 186.05 313.21 201.35 330.88 201.35"/><polygon points="269.28 247.01 260.45 262.3 269.28 277.6 286.94 277.6 295.77 262.3 286.94 247.01 269.28 247.01"/><polygon points="247.72 289.35 240.32 302.17 247.72 314.98 262.51 314.98 269.91 302.17 262.51 289.35 247.72 289.35"/><polygon points="228.07 328.35 222.11 338.68 228.07 349.02 240.01 349.02 245.98 338.68 240.01 328.35 228.07 328.35"/><polygon points="208.43 367.34 203.9 375.2 208.43 383.06 217.51 383.06 222.05 375.2 217.51 367.34 208.43 367.34"/><polygon points="317.78 229.14 307.52 246.91 287 246.91 276.74 229.14 286.97 211.41 287 211.37 307.56 211.37 317.78 229.14"/><polygon points="248.11 144.47 252.59 136.73 248.11 128.98 239.17 128.98 234.7 136.73 239.17 144.47 248.11 144.47"/><polygon points="255.98 178.2 267.91 178.2 273.87 167.87 267.91 157.54 255.98 157.54 250.02 167.87 255.98 178.2"/><polygon points="395.94 58.46 386.87 58.46 382.33 66.32 386.87 74.17 395.94 74.17 400.48 66.32 395.94 58.46"/><polygon points="378 110.17 383.97 99.83 378 89.49 366.06 89.49 360.1 99.83 366.06 110.17 378 110.17"/><polygon points="353.98 156.67 361.38 143.86 353.98 131.04 339.18 131.04 331.78 143.86 339.18 156.67 353.98 156.67"/><polygon points="330.88 201.35 339.7 186.05 330.88 170.76 313.21 170.76 304.38 186.05 313.21 201.35 330.88 201.35"/></svg>