<svg width="141" height="23" viewBox="0 0 141 23" fill="none" xmlns="http://www.w3.org/2000/svg">
<path d="M35.8018 19.4167C31.1719 19.4167 28.4859 16.0859 28.4859 11.0899C28.4859 6.0716 31.3467 2.87967 35.9326 2.87967C39.4488 2.87967 41.9599 4.90446 42.5932 8.46972H39.9251C39.4446 6.31308 37.8944 5.16815 35.8417 5.16815C33.3306 5.16815 31.3426 7.23874 31.3426 11.0899C31.3426 14.9646 33.2865 17.1212 35.8197 17.1212C37.9591 17.1212 39.4887 15.9985 39.9692 13.8197H42.6373C41.9819 17.3919 39.4488 19.4167 35.8018 19.4167Z" fill="#007BFF"/>
<path d="M50.3704 7.02364C53.2092 7.02364 54.3629 8.87218 54.3629 11.6894V19.1308H51.765V12.3306C51.765 10.7221 51.5282 9.15946 49.5402 9.15946C47.5522 9.15946 46.8088 10.6999 46.8088 12.8343V19.1308H44.2122V3.17111H46.8088V8.9388C47.4875 7.70505 48.7362 7.02364 50.3704 7.02364Z" fill="#007BFF"/>
<path d="M67.0962 7.28733V19.1308H64.4984V17.5681C63.799 18.7339 62.5709 19.4167 61.0042 19.4167C58.0553 19.4167 55.8938 17.0172 55.8938 13.2091C55.8938 9.40095 58.0553 7.02365 61.0042 7.02365C62.5764 7.02365 63.799 7.70506 64.4984 8.8722V7.28733H67.0962ZM58.6018 13.2091C58.6018 15.7182 59.6715 17.2809 61.5714 17.2809C63.2744 17.2809 64.6002 15.9389 64.6002 13.2091C64.6002 10.4793 63.2744 9.15947 61.5714 9.15947C59.6715 9.15947 58.6018 10.6999 58.6018 13.2091Z" fill="#007BFF"/>
<path d="M80.1545 7.04724C82.9933 7.04724 84.147 8.89579 84.147 11.713V19.1516H81.5519V12.3514C81.5519 10.7443 81.3123 9.18167 79.3243 9.18167C77.3363 9.18167 76.5943 10.7221 76.5943 12.8566V19.1516H73.9964V7.31092H76.5943V8.9624C77.2716 7.73004 78.5162 7.04724 80.1545 7.04724Z" fill="#007BFF"/>
<path d="M90.524 9.04983C89.3882 9.04983 88.3405 9.55638 88.3405 10.3488C88.3405 11.1412 88.9078 11.559 89.9128 11.7574L91.5731 12.0877C93.9521 12.5499 95.7652 13.2979 95.7652 15.6099C95.7652 18.0761 93.451 19.4403 90.7856 19.4403C87.9041 19.4403 85.9822 17.7888 85.6986 15.5433H88.2318C88.4713 16.7549 89.3456 17.4599 90.8737 17.4599C92.2271 17.4599 93.2321 16.8867 93.2321 15.918C93.2321 14.9494 92.3592 14.5094 91.2014 14.2888L89.4323 13.9377C87.4457 13.5407 85.8941 12.6387 85.8941 10.4807C85.8941 8.38924 88.1217 7.04724 90.6769 7.04724C92.9705 7.04724 95.0659 8.16997 95.5463 10.5473H93.1013C92.8177 9.46895 91.8347 9.04983 90.524 9.04983Z" fill="#007BFF"/>
<path d="M100.843 4.18561V7.31093H103.201V9.20388H100.843V15.6544C100.843 16.8645 101.126 17.1504 102.24 17.1504H103.179V19.1516H101.251C98.7403 19.1516 98.2378 18.4688 98.2378 16.0471V9.20388H96.4963V7.31093H98.2433V4.18561H100.843Z" fill="#007BFF"/>
<path d="M115.711 7.31092V19.1516H113.112V17.5917C112.414 18.7575 111.185 19.4403 109.618 19.4403C106.67 19.4403 104.507 17.0408 104.507 13.2327C104.507 9.42454 106.67 7.04724 109.618 7.04724C111.19 7.04724 112.414 7.73004 113.112 8.89579V7.31092H115.711ZM107.217 13.2327C107.217 15.7418 108.287 17.3044 110.186 17.3044C111.889 17.3044 113.215 15.9624 113.215 13.2327C113.215 10.5029 111.884 9.18306 110.186 9.18306C108.287 9.18306 107.217 10.7235 107.217 13.2327Z" fill="#007BFF"/>
<path d="M125.909 11.3619C125.695 10.106 124.594 9.2261 123.179 9.2261C121.564 9.2261 120.1 10.4376 120.1 13.2327C120.1 16.0499 121.584 17.2573 123.114 17.2573C124.379 17.2573 125.668 16.6841 125.995 15.0993H128.529C128.005 17.8748 125.581 19.4361 123.07 19.4361C119.662 19.4361 117.414 16.7729 117.414 13.2507C117.414 9.72848 119.684 7.04309 123.179 7.04309C125.734 7.04309 128.005 8.70845 128.442 11.3578L125.909 11.3619Z" fill="#007BFF"/>
<path d="M132.662 12.0655L137.006 7.31091H140.129L135.631 12.1765L140.631 19.1516H137.603L133.913 14.0167L132.674 15.3601V19.1516H130.062V3.19193H132.662V12.0655Z" fill="#007BFF"/>
<path d="M71.8928 19.1308H69.2935V7.28732H71.8928V19.1308Z" fill="#007BFF"/>
<path d="M70.5932 6.44909C71.5694 6.44909 72.3609 5.65129 72.3609 4.66715C72.3609 3.68302 71.5694 2.88522 70.5932 2.88522C69.6169 2.88522 68.8254 3.68302 68.8254 4.66715C68.8254 5.65129 69.6169 6.44909 70.5932 6.44909Z" fill="#007BFF"/>
<path d="M15.8186 15.9457H5.04981C4.67461 15.9465 4.30296 15.8726 3.95614 15.7283C3.60933 15.584 3.29419 15.3721 3.02878 15.1047L0.826012 12.8843C0.295525 12.3451 -0.00148585 11.6161 -2.47656e-05 10.8567V5.09038C-0.000778383 4.71217 0.0725292 4.33752 0.215695 3.98792C0.358861 3.63832 0.569071 3.32064 0.834272 3.0531L3.03704 0.832623C3.5724 0.297789 4.29608 -0.00159204 5.04981 -5.5147e-05H15.8186V3.19188H6.01215C5.25764 3.19261 4.53425 3.49507 4.00074 4.03288C3.46723 4.57068 3.16718 5.29989 3.16645 6.06045V9.88522C3.16645 10.6463 3.46618 11.3762 3.99977 11.9146C4.53336 12.453 5.25717 12.7558 6.01215 12.7566H15.8186V15.9457Z" fill="#007BFF"/>
<path d="M6.33295 6.38388H17.1031C17.8555 6.38314 18.5776 6.68249 19.1117 7.21656L21.3145 9.43704C21.8487 9.97552 22.1488 10.7059 22.1488 11.4674V17.2337C22.1488 17.9952 21.8487 18.7255 21.3145 19.264L19.1117 21.4845C18.5776 22.023 17.853 22.3255 17.0976 22.3255H6.33295V19.1336H16.1394C16.8948 19.1336 17.6194 18.8311 18.1535 18.2926C18.6877 17.7541 18.9878 17.0237 18.9878 16.2622V12.4388C18.9878 11.6773 18.6877 10.947 18.1535 10.4085C17.6194 9.87 16.8948 9.56749 16.1394 9.56749H6.33295V6.38388Z" fill="#007BFF"/>
</svg>
