<svg width="170" height="42" viewBox="0 0 170 42" fill="none" xmlns="http://www.w3.org/2000/svg">
<g clip-path="url(#clip0)">
<path fill-rule="evenodd" clip-rule="evenodd" d="M53.5129 29.8519H48.5329C46.4668 29.8519 45.4878 28.8745 45.4878 26.8109V17.6897C45.4878 15.6261 46.4668 14.6487 48.5329 14.6487H53.5129C55.579 14.6487 56.558 15.6261 56.558 17.6897V19.8828H53.948V17.8416C53.948 17.2553 53.7305 17.0378 53.1425 17.0378H48.9024C48.3153 17.0378 48.0978 17.2553 48.0978 17.8416V26.6589C48.0978 27.246 48.3153 27.4628 48.9033 27.4628H53.1434C53.7305 27.4628 53.948 27.246 53.948 26.6589V24.6178H56.558V26.8109C56.558 28.8745 55.579 29.8519 53.5129 29.8519ZM66.9963 18.124V20.4906H65.9749C64.7127 20.4906 63.8432 20.8394 62.8642 21.4041V27.9627H64.9734V29.8519H58.6017V27.9627H60.3638V20.0131H58.6017V18.124H62.8642V19.9052C63.7344 18.8838 64.5607 18.124 66.3436 18.124H66.9963ZM78.8272 20.0131L74.6087 31.3939H75.8917V33.3271H70.3678V31.3939H72.1507L72.673 29.8519L69.1703 20.0131H67.8873V18.124H72.9545V20.0131H71.7363L73.9552 27.3108L76.3468 20.0131H75.1294V18.124H80.1093V20.0131H78.8272ZM89.3751 18.0368C91.8107 18.0368 92.7241 18.9494 92.7241 21.0561V26.9197C92.7241 29.0264 91.8107 29.9391 89.3751 29.9391C87.1346 29.9391 86.3084 29.2 85.4165 28.1578V31.438H87.5042V33.3271H81.154V31.4371H82.9161V20.0131H81.1532V18.124H85.4157V19.818C86.3075 18.7758 87.1355 18.0368 89.3751 18.0368ZM90.2014 26.7245V21.2521C90.2014 20.5131 89.9838 20.2739 88.9615 20.2739C87.2434 20.2739 86.4172 20.5994 85.3949 21.2081V26.7677C86.4172 27.3756 87.2434 27.7019 88.9615 27.7019C89.9838 27.7019 90.2014 27.4628 90.2014 26.7245ZM98.8127 20.1875V26.9197C98.8127 27.5284 99.0311 27.7451 99.6398 27.7451H101.467V29.8519H99.1831C97.2258 29.8519 96.3124 28.9401 96.3124 26.9853V20.1875H94.5726V18.124H96.3339V15.3006H98.7695V18.124H101.467V20.1875H98.8127ZM106.555 18.124H110.384C112.34 18.124 113.254 19.0358 113.254 20.9905V26.9853C113.254 28.9401 112.34 29.8519 110.383 29.8519H106.555C104.598 29.8519 103.685 28.9401 103.685 26.9853V20.9905C103.685 19.0358 104.598 18.124 106.555 18.124ZM110.752 26.8333V21.1425C110.752 20.5346 110.536 20.3171 109.926 20.3171H107.011C106.425 20.3171 106.186 20.5346 106.186 21.1425V26.8333C106.186 27.4412 106.425 27.6579 107.012 27.6579H109.927C110.536 27.6579 110.752 27.4412 110.752 26.8333ZM136.008 28.5049V29.8519H130.31V28.5049H132.442L131.311 25.3776H124.786L123.655 28.5049H125.743V29.8519H120.133V28.5049H122.09L126.679 15.9956H124.852V14.6487H128.962L134.051 28.5049H136.008ZM130.788 23.9443L128.048 16.2779L125.286 23.9443H130.788ZM137.487 14.6487H146.796C148.861 14.6487 149.84 15.6261 149.84 17.6897V20.7298C149.84 22.7934 148.861 23.7708 146.795 23.7708H141.228V28.5049H143.75V29.8519H137.487V28.5049H139.662V15.9956H137.487V14.6487ZM148.274 20.7738V17.6465C148.274 16.5171 147.839 16.082 146.708 16.082H141.228V22.3375H146.708C147.839 22.3375 148.274 21.9032 148.274 20.7738ZM156.06 15.9956V28.5049H158.408V29.8519H152.145V28.5049H154.493V15.9956H152.145V14.6487H158.408V15.9956H156.06ZM167.912 21.468V20.9905C167.912 19.9052 167.477 19.4709 166.39 19.4709H163.867C162.779 19.4709 162.344 19.9052 162.344 21.2945C162.344 22.4678 162.779 22.6846 163.693 22.8365L167.107 23.4012C168.803 23.6836 169.63 24.3786 169.63 26.399C169.63 28.8961 168.673 29.8519 166.672 29.8519H163.671C161.67 29.8519 160.713 28.8969 160.713 26.8981V26.3118H162.149V26.9845C162.149 28.0706 162.583 28.5049 163.671 28.5049H166.629C167.716 28.5049 168.151 28.0706 168.151 26.4638C168.151 25.0953 167.716 24.8777 166.803 24.7266L163.388 24.1619C161.692 23.8795 160.866 23.1845 160.866 21.3601C160.866 19.0798 161.823 18.124 163.823 18.124H166.389C168.39 18.124 169.347 19.0789 169.347 21.0777V21.468H167.912Z" fill="#020D1C"/>
<path fill-rule="evenodd" clip-rule="evenodd" d="M17.0384 0.225783C17.3205 0.0770729 17.6347 -0.000197786 17.9535 0.000740873L17.9519 9.92417C17.638 9.92417 17.3249 10.0006 17.0359 10.15L1.06044 18.504C0.740816 18.67 0.473038 18.9207 0.286432 19.2287C0.0998271 19.5368 0.0015933 19.8902 0.00249123 20.2503L0 10.3269C0.000267998 9.96638 0.099235 9.6128 0.286169 9.30451C0.473104 8.99622 0.740872 8.745 1.06044 8.57807L17.0384 0.225783Z" fill="#22D7FF"/>
<path fill-rule="evenodd" clip-rule="evenodd" d="M1.05961 23.1311L17.0367 31.4834C17.3232 31.6337 17.638 31.7076 17.9527 31.7084V41.6318C17.638 41.6335 17.3241 41.5579 17.0359 41.406L1.05878 33.0553C0.739283 32.8885 0.47165 32.6372 0.284979 32.3289C0.0983076 32.0205 -0.000257681 31.6669 5.05928e-07 31.3065V21.3831C5.05928e-07 22.1171 0.407733 22.7906 1.05961 23.1319V23.1311Z" fill="#2C3EE2"/>
<path fill-rule="evenodd" clip-rule="evenodd" d="M1.05961 19.5089L17.0367 11.1574C17.3232 11.0071 17.6388 10.9324 17.9527 10.9324V20.8558C17.6371 20.8558 17.3232 20.9305 17.0376 21.0817L1.06044 29.4331C0.740396 29.5995 0.472222 29.8506 0.285207 30.159C0.0981932 30.4674 -0.000467698 30.8213 1.66691e-06 31.182V21.2586C1.66691e-06 20.5245 0.408565 19.8502 1.05961 19.5089Z" fill="#22D7FF"/>
<path fill-rule="evenodd" clip-rule="evenodd" d="M34.7969 8.57816C35.1171 8.74439 35.3854 8.99544 35.5726 9.30387C35.7598 9.61229 35.8586 9.96624 35.8582 10.327V20.2496C35.8582 19.5172 35.4488 18.8437 34.7986 18.5049L18.8214 10.151C18.5384 10.0022 18.2235 9.9244 17.9038 9.92426L17.9055 0C18.2194 0 18.5341 0.0747371 18.8214 0.224211L34.7969 8.57816Z" fill="#01AACF"/>
<path fill-rule="evenodd" clip-rule="evenodd" d="M34.7987 23.1319C35.1182 22.965 35.3859 22.7138 35.5727 22.4055C35.7595 22.0971 35.8583 21.7435 35.8583 21.3831V31.3065C35.8583 32.0414 35.4506 32.7149 34.7987 33.0562L18.8207 41.4076C18.5351 41.5571 18.2212 41.6335 17.9056 41.6327L17.9048 31.7092C18.2203 31.7084 18.5351 31.6345 18.8224 31.4834L34.7995 23.1319H34.7987Z" fill="#01119A"/>
<path fill-rule="evenodd" clip-rule="evenodd" d="M34.7987 19.5097C35.1182 19.6762 35.3859 19.9272 35.5729 20.2352C35.7598 20.5432 35.8588 20.8965 35.8591 21.2569V31.1819C35.8591 30.4479 35.4514 29.7761 34.7987 29.4372L18.8224 21.0833C18.5393 20.9348 18.2245 20.857 17.9048 20.8566V10.9332C18.2203 10.9307 18.5359 11.0079 18.8224 11.1557L34.7995 19.5105L34.7987 19.5097Z" fill="#01AACF"/>
</g>
<defs>
<clipPath id="clip0">
<rect width="170" height="41.6327" fill="white"/>
</clipPath>
</defs>
</svg>
