<svg width="230" height="72" viewBox="0 0 230 72" fill="none" xmlns="http://www.w3.org/2000/svg">
<g clip-path="url(#clip0)">
<path d="M93 32.55C91.1 32.55 89.7 31.9 88.8 30.6C87.9 29.3 87.45 27.45 87.45 25.05C87.45 22.65 87.9 20.8 88.8 19.5C89.7 18.2 91.1 17.55 93 17.55C93.7 17.55 94.35 17.65 94.9 17.85C95.45 18.05 95.9 18.3 96.3 18.65C96.7 19 97.05 19.4 97.3 19.85C97.55 20.35 97.75 20.85 97.9 21.4L95.4 22.1C95.3 21.75 95.2 21.45 95.05 21.15C94.95 20.85 94.75 20.6 94.6 20.4C94.4 20.2 94.2 20 93.9 19.9C93.6 19.8 93.3 19.7 92.9 19.7C91.95 19.7 91.3 20.05 90.85 20.8C90.45 21.5 90.25 22.5 90.25 23.75V26.25C90.25 27.5 90.45 28.5 90.85 29.2C91.25 29.9 91.95 30.3 92.9 30.3C93.3 30.3 93.6 30.25 93.9 30.1C94.2 30 94.4 29.8 94.6 29.6C94.8 29.4 94.95 29.15 95.05 28.85C95.15 28.55 95.3 28.25 95.4 27.9L97.9 28.6C97.75 29.15 97.55 29.7 97.3 30.15C97.05 30.65 96.7 31.05 96.3 31.35C95.9 31.7 95.4 31.95 94.9 32.15C94.35 32.45 93.75 32.55 93 32.55Z" fill="white"/>
<path d="M105.85 32.3V27L101.15 17.8H104.2L105.9 21.3L107.2 24.25H107.35L108.7 21.3L110.4 17.8H113.35L108.55 27V32.3H105.85Z" fill="white"/>
<path d="M117.2 32.3V17.8H122.7C124.1 17.8 125.2 18.2 125.95 19C126.7 19.8 127.05 20.9 127.05 22.3C127.05 23.7 126.7 24.8 125.95 25.6C125.2 26.4 124.1 26.8 122.7 26.8H119.9V32.35H117.2V32.3ZM119.9 24.55H122.15C122.9 24.55 123.4 24.4 123.75 24.1C124.05 23.8 124.25 23.3 124.25 22.65V21.85C124.25 21.2 124.1 20.7 123.75 20.4C123.45 20.1 122.9 19.95 122.15 19.95H119.9V24.55Z" fill="white"/>
<path d="M138.45 26.05H134.2V32.3H131.5V17.8H134.2V23.85H138.45V17.8H141.15V32.3H138.45V26.05Z" fill="white"/>
<path d="M146.35 32.3V17.8H155.5V20.05H149.05V23.85H155.25V26.1H149.05V30.1H155.5V32.35H146.35V32.3Z" fill="white"/>
<path d="M163.6 32.3H160.9V17.8H166.4C167.8 17.8 168.9 18.2 169.65 19C170.4 19.8 170.75 20.9 170.75 22.3C170.75 23.35 170.5 24.25 170 25C169.5 25.75 168.8 26.2 167.9 26.4L171 32.35H168L165.25 26.7H163.6V32.3ZM165.8 24.55C166.55 24.55 167.05 24.4 167.4 24.1C167.7 23.8 167.9 23.3 167.9 22.65V21.85C167.9 21.2 167.75 20.7 167.4 20.4C167.1 20.1 166.55 19.95 165.8 19.95H163.55V24.5H165.8V24.55Z" fill="white"/>
<path d="M175.4 32.3V17.8H180.9C182.3 17.8 183.4 18.2 184.15 19C184.9 19.8 185.25 20.9 185.25 22.3C185.25 23.7 184.9 24.8 184.15 25.6C183.4 26.4 182.3 26.8 180.9 26.8H178.1V32.35H175.4V32.3ZM178.15 24.55H180.4C181.15 24.55 181.65 24.4 182 24.1C182.3 23.8 182.5 23.3 182.5 22.65V21.85C182.5 21.2 182.35 20.7 182 20.4C181.7 20.1 181.15 19.95 180.4 19.95H178.15V24.55Z" fill="white"/>
<path d="M192.35 17.8V26.85C192.35 27.4 192.35 27.9 192.4 28.3C192.45 28.75 192.5 29.1 192.65 29.4C192.8 29.7 193 29.95 193.3 30.1C193.6 30.25 194 30.35 194.55 30.35C195.1 30.35 195.5 30.25 195.8 30.1C196.1 29.95 196.3 29.7 196.45 29.4C196.6 29.1 196.7 28.75 196.7 28.3C196.75 27.85 196.75 27.4 196.75 26.85V17.8H199.45V26.45C199.45 27.5 199.4 28.35 199.25 29.15C199.15 29.9 198.9 30.55 198.5 31.05C198.15 31.55 197.65 31.95 197 32.2C196.35 32.45 195.5 32.6 194.45 32.6C193.4 32.6 192.55 32.45 191.9 32.2C191.25 31.95 190.75 31.55 190.4 31.05C190.05 30.55 189.8 29.9 189.65 29.15C189.55 28.4 189.45 27.5 189.45 26.45V17.8H192.35Z" fill="white"/>
<path d="M206.8 21.9H206.6V32.3H204.25V17.8H207.6L211.4 28.2H211.6V17.8H213.95V32.3H210.6L206.8 21.9Z" fill="white"/>
<path d="M223.2 25.95L221.7 27.95V32.3H219V17.8H221.7V24.35H221.8L223.5 21.95L226.55 17.85H229.65L225.1 23.95L229.85 32.35H226.75L223.2 25.95Z" fill="white"/>
<path d="M95.65 51.95H95.55C95.45 52.25 95.3 52.5 95.1 52.75C94.9 53 94.7 53.25 94.45 53.45C94.2 53.65 93.9 53.8 93.5 53.95C93.15 54.05 92.7 54.15 92.2 54.15C90.6 54.15 89.45 53.5 88.65 52.25C87.9 50.95 87.5 49.15 87.5 46.75C87.5 44.25 87.9 42.35 88.75 41.05C89.6 39.75 90.9 39.1 92.65 39.1C93.35 39.1 93.9 39.2 94.4 39.35C94.9 39.55 95.35 39.75 95.7 40.1C96.05 40.4 96.35 40.75 96.6 41.15C96.85 41.55 97.05 41.9 97.2 42.3L95.7 43C95.6 42.7 95.45 42.4 95.25 42.1C95.1 41.8 94.9 41.55 94.65 41.35C94.4 41.15 94.15 40.95 93.85 40.85C93.55 40.75 93.15 40.65 92.75 40.65C91.6 40.65 90.75 41.1 90.2 41.95C89.65 42.8 89.4 44 89.4 45.45V47.7C89.4 48.45 89.45 49.1 89.55 49.7C89.65 50.3 89.85 50.85 90.1 51.25C90.35 51.7 90.7 52.05 91.1 52.3C91.5 52.55 92 52.65 92.6 52.65C93.55 52.65 94.3 52.35 94.8 51.8C95.35 51.25 95.6 50.5 95.6 49.6V48.1H92.55V46.7H97.25V53.9H95.65V51.95Z" fill="white"/>
<path d="M104.35 39.4V48.1C104.35 48.8 104.35 49.45 104.4 50C104.45 50.55 104.55 51.05 104.75 51.4C104.95 51.8 105.2 52.1 105.6 52.3C106 52.5 106.5 52.6 107.2 52.6C107.9 52.6 108.4 52.5 108.8 52.3C109.2 52.1 109.45 51.8 109.65 51.4C109.85 51 109.95 50.55 110 50C110.05 49.45 110.05 48.8 110.05 48.1V39.4H111.8V47.7C111.8 48.8 111.75 49.7 111.65 50.55C111.55 51.35 111.35 52.05 111 52.55C110.65 53.1 110.2 53.5 109.6 53.75C109 54 108.2 54.15 107.2 54.15C106.2 54.15 105.4 54 104.8 53.75C104.2 53.5 103.75 53.05 103.4 52.55C103.05 52 102.85 51.35 102.75 50.55C102.65 49.75 102.6 48.8 102.6 47.7V39.4H104.35Z" fill="white"/>
<path d="M117.25 53.9V52.5H120.85V40.8H117.25V39.4H126.25V40.8H122.65V52.5H126.25V53.9H117.25Z" fill="white"/>
<path d="M132.55 53.9V39.4H134.3V52.4H141.2V53.9H132.55Z" fill="white"/>
<path d="M146.6 39.4H150.65C152.4 39.4 153.75 40 154.6 41.25C155.45 42.5 155.9 44.3 155.9 46.7C155.9 49.1 155.45 50.9 154.6 52.15C153.75 53.35 152.4 54 150.65 54H146.6V39.4ZM150.6 52.4C151.75 52.4 152.65 52 153.25 51.2C153.85 50.4 154.15 49.25 154.15 47.8V45.5C154.15 44.05 153.85 42.9 153.25 42.1C152.65 41.3 151.8 40.9 150.6 40.9H148.35V52.4H150.6Z" fill="white"/>
<path d="M36 45C31.05 45 27 40.95 27 36C27 31.05 31.05 27 36 27V45Z" fill="white"/>
<path d="M36 18V25C42.05 25 47 29.95 47 36C47 42.05 42.05 47 36 47V54C45.95 54 54 45.95 54 36C54 26.05 45.95 18 36 18Z" fill="white"/>
<path d="M36 56C24.95 56 16 47.05 16 36C16 24.95 24.95 16 36 16C41.5 16 46.5 18.25 50.15 21.85L55.1 16.9C50.2 12 43.45 9 36 9C21.1 9 9 21.1 9 36C9 50.9 21.1 63 36 63C43.45 63 50.2 60 55.1 55.1L50.15 50.15C46.5 53.75 41.5 56 36 56Z" fill="white"/>
<path d="M55.7 32.5C55.9 33.65 56 34.8 56 36C56 37.2 55.9 38.35 55.7 39.5H64.8C63.05 53.85 50.8 65 36 65C20 65 7 52 7 36C7 20 20 7 36 7V0C16.1 0 0 16.1 0 36C0 55.9 16.1 72 36 72C55.9 72 72 55.9 72 36V32.5H55.7Z" fill="white"/>
</g>
<defs>
<clipPath id="clip0">
<rect width="229.85" height="72" fill="white"/>
</clipPath>
</defs>
</svg>
