<svg xmlns="http://www.w3.org/2000/svg" viewBox="0 0 186.15 186.15"><defs><style>.cls-1{fill:#fa4343;}.cls-2{fill:#f8f8f8;}</style></defs><g id="Слой_2" data-name="Слой 2"><g id="Full_final_logo"><circle class="cls-1" cx="93.08" cy="93.08" r="93.08"/><g id="Full_Logo"><path class="cls-2" d="M168.53,91.79C135.32,138.2,123,95,103,95c-7.83,0-9.89,6.34-9.89,9.11,0-2.77-2.06-9.11-9.9-9.11-20,0-32.34,43.2-65.56-3.21-.63,50.89,47.76,62.93,75.46,31.1C120.77,154.72,169.17,142.68,168.53,91.79Z"/><path class="cls-2" d="M164.63,72.71c-3.72,2-7.84,4-11.36,5.49a9.35,9.35,0,0,1-3.66.74H36.54a9.3,9.3,0,0,1-3.65-.74c-3.52-1.51-7.64-3.49-11.37-5.49a1.63,1.63,0,0,1-.79-1.9c.45-1.49,1.29-4.1,2.49-7a1.64,1.64,0,0,1,2.25-.84c3.62,1.84,6.51,3.14,9.2,4.28v-22a1.68,1.68,0,0,1,.39-1.07,75.45,75.45,0,0,1,116,0,1.62,1.62,0,0,1,.39,1.07v22c2.7-1.14,5.59-2.44,9.21-4.28a1.64,1.64,0,0,1,2.25.84c1.2,2.93,2,5.55,2.48,7A1.63,1.63,0,0,1,164.63,72.71Z"/></g></g></g></svg>