<svg width="80" height="47" viewBox="0 0 80 47" fill="none" xmlns="http://www.w3.org/2000/svg">
<path d="M67.1554 26.6448H74.633V16.035L67.1554 26.6448ZM75.4067 36.5107C75.161 36.5107 74.9523 36.4245 74.7805 36.2521C74.6085 36.0796 74.5226 35.87 74.5226 35.6236V30.8928H62.8456C62.6001 30.8928 62.3914 30.8066 62.2194 30.6342C62.0476 30.4617 61.9615 30.2523 61.9615 30.0057V27.4557C61.9615 27.0614 62.0966 26.692 62.3667 26.3468L73.2333 11.2674C73.3562 11.0702 73.5404 10.9163 73.7859 10.8055C74.0315 10.6945 74.3017 10.6392 74.5963 10.6392H78.6484C78.9183 10.6392 79.1334 10.7192 79.293 10.8794C79.4525 11.0396 79.5323 11.2551 79.5323 11.5262V35.6236C79.5323 35.87 79.4525 36.0796 79.293 36.2521C79.1332 36.4243 78.9183 36.5107 78.6482 36.5107H75.4067ZM47.9749 36.8803C44.5859 36.8803 41.9647 36.0119 40.1104 34.2747C38.2563 32.5376 37.2678 30.0674 37.1452 26.8642C37.1205 26.199 37.1082 25.1149 37.1082 23.6121C37.1082 22.0841 37.1205 20.9755 37.1452 20.2856C37.2678 17.1316 38.2625 14.6738 40.1288 12.912C41.9953 11.1504 44.6106 10.2695 47.9746 10.2695C50.1605 10.2695 52.0635 10.6453 53.6843 11.3968C55.3052 12.1483 56.5637 13.177 57.46 14.483C58.3563 15.7889 58.829 17.2547 58.8782 18.881V18.9551C58.8782 19.1522 58.7984 19.3184 58.6387 19.4539C58.4791 19.5894 58.301 19.6572 58.1047 19.6572H54.5317C54.2371 19.6572 54.0159 19.5894 53.8686 19.4539C53.7213 19.3184 53.5984 19.0781 53.5001 18.7332C53.1318 17.2057 52.4934 16.1277 51.5846 15.4992C50.6761 14.871 49.4729 14.5569 47.9749 14.5569C44.463 14.5569 42.6337 16.5279 42.4864 20.4703C42.4617 21.1357 42.4494 22.158 42.4494 23.538C42.4494 24.9177 42.4617 25.9649 42.4864 26.6795C42.6337 30.6219 44.463 32.5929 47.9749 32.5929C49.4482 32.5929 50.6455 32.2788 51.5663 31.6506C52.4873 31.0222 53.1318 29.9441 53.5001 28.4166C53.5984 28.0717 53.7213 27.8315 53.8686 27.6959C54.0159 27.5604 54.2369 27.4926 54.5317 27.4926H58.1047C58.3257 27.4926 58.5161 27.5665 58.6756 27.7143C58.8352 27.8623 58.9027 28.047 58.8782 28.2689C58.829 29.8949 58.3563 31.361 57.46 32.667C56.5637 33.9729 55.3052 35.0013 53.6843 35.753C52.0635 36.5045 50.1603 36.8803 47.9749 36.8803ZM12.8703 36.5109C12.6248 36.5109 12.4161 36.4245 12.2441 36.2521C12.0723 36.0796 11.9862 35.87 11.9862 35.6236V11.5631C11.9862 11.2921 12.066 11.0702 12.2257 10.8977C12.3853 10.7255 12.6001 10.6392 12.8703 10.6392H15.7437C16.2103 10.6392 16.5664 10.8486 16.812 11.2674L27.3471 27.6776V11.5629C27.3471 11.2919 27.4269 11.07 27.5864 10.8975C27.746 10.7253 27.961 10.6389 28.2312 10.6389H31.399C31.6691 10.6389 31.8901 10.7251 32.0619 10.8975C32.2339 11.07 32.3198 11.2919 32.3198 11.5629V35.5865C32.3198 35.8575 32.2339 36.0794 32.0619 36.2519C31.8901 36.4241 31.6812 36.5104 31.4357 36.5104H28.5258C28.0347 36.5104 27.6662 36.301 27.4208 35.8822L16.9222 19.8421V35.6236C16.9222 35.87 16.8424 36.0796 16.6829 36.2521C16.5233 36.4243 16.3082 36.5107 16.0381 36.5107L12.8703 36.5109ZM1.81963 36.5109C1.57396 36.5109 1.36524 36.4245 1.19345 36.2521C1.02144 36.0796 0.935547 35.87 0.935547 35.6236V11.5262C0.935547 11.2551 1.02167 11.0396 1.19345 10.8794C1.36524 10.7192 1.57419 10.6392 1.81963 10.6392H5.35594C5.62586 10.6392 5.84093 10.7192 6.00048 10.8794C6.16002 11.0396 6.2398 11.2551 6.2398 11.5262V35.6236C6.2398 35.87 6.16002 36.0796 6.00048 36.2521C5.84093 36.4243 5.62586 36.5107 5.35594 36.5107L1.81963 36.5109Z" fill="#FF4D4D"/>
<path d="M0 42.4689C0 42.3487 0.0477538 42.2334 0.132756 42.1484C0.217758 42.0634 0.333046 42.0156 0.453258 42.0156H79.5467C79.667 42.0156 79.7822 42.0634 79.8672 42.1484C79.9522 42.2334 80 42.3487 80 42.4689V46.2309C80 46.3511 79.9522 46.4664 79.8672 46.5514C79.7822 46.6364 79.667 46.6842 79.5467 46.6842H0.453258C0.333046 46.6842 0.217758 46.6364 0.132756 46.5514C0.0477538 46.4664 0 46.3511 0 46.2309V42.4689Z" fill="#FF4D4D"/>
<path d="M0 0.453258C0 0.333046 0.0477538 0.217758 0.132756 0.132756C0.217758 0.0477538 0.333046 0 0.453258 0H79.5467C79.667 0 79.7822 0.0477538 79.8672 0.132756C79.9522 0.217758 80 0.333046 80 0.453258V4.2153C80 4.33551 79.9522 4.4508 79.8672 4.5358C79.7822 4.6208 79.667 4.66856 79.5467 4.66856H0.453258C0.333046 4.66856 0.217758 4.6208 0.132756 4.5358C0.0477538 4.4508 0 4.33551 0 4.2153V0.453258Z" fill="#FF4D4D"/>
</svg>
