<svg xmlns="http://www.w3.org/2000/svg" viewBox="0 0 569.76 284.88"><defs><style>.a{fill:#00c8ff;}.b{fill:#fff;}</style></defs><title>inite2</title><rect class="a" width="569.76" height="284.88"/><path class="b" d="M167.84,120.55H151a7.86,7.86,0,0,0,0,15.72h16.83a3.37,3.37,0,0,1,3.37,3.36v44.9a7.86,7.86,0,1,0,15.71.56,5.23,5.23,0,0,0,0-.56v-44.9A19.1,19.1,0,0,0,167.84,120.55Z"/><path class="b" d="M281.77,120.55a7.86,7.86,0,0,0-7.86,7.86v56.12a7.86,7.86,0,1,0,15.71.56,5.23,5.23,0,0,0,0-.56V128.41a7.84,7.84,0,0,0-7.84-7.86Z"/><path class="b" d="M230.42,120.55a28.94,28.94,0,0,0-28.91,28.91v35.07a7.86,7.86,0,1,0,15.72,0h0V149.46a13.19,13.19,0,1,1,26.37-.73c0,.25,0,.49,0,.73v35.07a7.86,7.86,0,1,0,15.72,0V149.46A28.94,28.94,0,0,0,230.42,120.55Z"/><circle class="b" cx="179.07" cy="102.6" r="10.1"/><circle class="b" cx="281.77" cy="102.59" r="10.1"/><path class="b" d="M391.2,120.55a35.92,35.92,0,0,0,0,71.84c8.64,0,18.64-2.88,25.16-8.52a7.42,7.42,0,0,0,.75-10.46c-2.68-3.09-6.78-3.76-10.46-.75A23.66,23.66,0,0,1,391.2,178c-9,0-18.48-6.05-20.74-14.47h49.25a6.67,6.67,0,0,0,6.9-6.45,5,5,0,0,0,0-.55C426.61,136.67,411,120.55,391.2,120.55Zm-20.74,30.38c1.29-9.83,10.35-16.42,20.74-16.42,10.58,0,19.51,6.1,21.37,16.42Z"/><path class="b" d="M323.3,135.14h17.39a7.3,7.3,0,0,0,7.3-7.28c0-.1,0-.19,0-.28a7.41,7.41,0,0,0-7.46-7h-13.3a7.29,7.29,0,0,0-7.29,7.29h0V100.54a8,8,0,0,0-7.57-8,7.86,7.86,0,0,0-8.14,7.56,2.81,2.81,0,0,0,0,.29v61.73a30.31,30.31,0,0,0,30.31,30.31h5.42a8,8,0,0,0,8-7.57,7.86,7.86,0,0,0-7.56-8.14h-5.9a14.59,14.59,0,0,1-14.59-14.59V138.51a3.37,3.37,0,0,1,3.37-3.37Z"/></svg>