<svg id="Layer_1" data-name="Layer 1" xmlns="http://www.w3.org/2000/svg" viewBox="0 0 800 800"><defs><style>.cls-1,.cls-2{fill:#d29566;}.cls-1{fill-rule:evenodd;}</style></defs><path class="cls-1" d="M768.57,685.6a34.7,34.7,0,0,1,17.83,4.6A35.65,35.65,0,0,1,798.83,702l-8.48,6.28a26.42,26.42,0,0,0-9.57-9,25.55,25.55,0,0,0-12.36-3.14,24,24,0,0,0-6.52.88,17.2,17.2,0,0,0-5.54,2.63,12.67,12.67,0,0,0-3.82,4.38,13,13,0,0,0-1.38,6.15,11.84,11.84,0,0,0,1.25,5.69A14.48,14.48,0,0,0,755.7,720a23,23,0,0,0,4.89,3.3q2.85,1.45,6.22,3.06l10.67,5.12a80.5,80.5,0,0,1,9.43,5.2,35,35,0,0,1,7.09,5.92,23.31,23.31,0,0,1,4.47,7.09,23.68,23.68,0,0,1,1.53,8.69,25.1,25.1,0,0,1-2.41,11.12A25.59,25.59,0,0,1,791,778a29.48,29.48,0,0,1-9.86,5.41,38.49,38.49,0,0,1-12.28,1.91,39.41,39.41,0,0,1-20.77-5.56,41.71,41.71,0,0,1-14.77-15.21l8.48-6.28a54.38,54.38,0,0,0,4.9,6.36,34,34,0,0,0,6,5.25,28.11,28.11,0,0,0,7.31,3.59,27.73,27.73,0,0,0,8.7,1.32q8.47,0,14-4.32a14.17,14.17,0,0,0,5.48-11.76,13.2,13.2,0,0,0-1.16-5.79,13.49,13.49,0,0,0-3.36-4.3,29.34,29.34,0,0,0-5.12-3.52q-2.93-1.61-6.44-3.36l-10.82-5.12c-2.83-1.36-5.55-2.83-8.19-4.39a35.33,35.33,0,0,1-7-5.41,24.15,24.15,0,0,1-4.89-7,21.32,21.32,0,0,1-1.83-9.07,22.94,22.94,0,0,1,2.33-10.37,24.34,24.34,0,0,1,6.36-8,28.7,28.7,0,0,1,9.36-5,35.63,35.63,0,0,1,11.2-1.76M654.22,697.44H603.76V727h38.61v10.24H603.76v36.26H656v10.23H592.35V687.2h61.87Zm-143.6,0h-49v33.2h40.66V741H461.63v42.69h-11.4V687.2h60.39ZM303.56,753.88h38.61L323,706.65ZM367,783.71H354.75l-8.34-19.59H299.32l-8.18,19.59H279l42-98.11h4.09ZM201.36,697.44H150.9V727h38.61v10.24H150.9v36.26h52.2v10.23H139.5V687.2h61.86Zm-190,76H57.32v10.23H0V687.2H11.41Z"/><path class="cls-2" d="M320.41,170.8l-43.05,81c-1.5,2.82-2.1,7-1.88,11.39a31.9,31.9,0,0,0,3.33,13l60.44,114.27A23.56,23.56,0,0,1,341.3,385l90.42-170.29,11.15-86.59h0l.24-1.88c.13-1,.28-2,.4-3.11Zm76.44-144L327.53,157.37l116.66-45.16a24,24,0,0,0-2.08-9.87l0-.07,0-.08-.05-.09,0-.08L403.48,29.57A10.68,10.68,0,0,0,399.63,25l-.77-.27-.38.12ZM268.55,247.16l37.63-70.86,6.27-11.81L388,22.16A14.33,14.33,0,0,1,393.8,16a10.59,10.59,0,0,1,5.33-1.24,11.78,11.78,0,0,1,5.18,1.4c3,1.56,5.75,4.49,8,8.69l38.48,72.45.07.12.07.14.07.12,0,.06.05.08.06.13.12.23v0l.19.42.05.12.13.28,0,.05.15.35,0,.11a32.31,32.31,0,0,1,1.91,6.8,49.79,49.79,0,0,1,.57,9.16l-.06,2.9-.25.13c-.23,3.21-.64,6.27-1,9l-.25,1.89L445,189.8,460.79,160a14.35,14.35,0,0,1,5-5.69,10,10,0,0,1,5.52-1.56h0a11.32,11.32,0,0,1,5.35,1.41h0c2.87,1.51,5.65,4.32,8.11,8.29l44.76,72.45a36.11,36.11,0,0,1,4.84,16.87c.31,6.35-.82,12.67-3.21,17.17L411.78,494a13.25,13.25,0,0,1-5.58,5.54,16.62,16.62,0,0,1-7.66,1.84l-2.05.28a13.27,13.27,0,0,1-6.37-1.41,20.47,20.47,0,0,1-8.51-8.29l0,0,0-.06-.33-.59-38.47-72.44L341.42,416,270,280.92a42.56,42.56,0,0,1-4.47-17.22C265.23,257.58,266.21,251.57,268.55,247.16Zm159.55-4.34-78,146.86c-1.49,2.83-2.11,7-1.89,11.41a33.29,33.29,0,0,0,2.29,10.75l35.95,68,3.58,6.71a8.8,8.8,0,0,0,3.69,3.64l2.4.91V491ZM407.49,480.76l115-216.47c1.57-3,2.31-7.41,2.07-12.05a25.75,25.75,0,0,0-3.36-12.1L476.4,167.69a12.77,12.77,0,0,0-4.31-4.72h0l-.77-.27h0l-.24.09-1.48,1.88v0l-28.25,53.21Z"/></svg>