<svg viewBox="0 0 48 48" xmlns="http://www.w3.org/2000/svg"><rect width="100%" height="100%" fill="#000"/><path fill="#0F0" d="M4.8,31A1,1,0,0,0,4,32.2,1,1,0,0,0,5.2,33C25,29,37.55,15,42,9.12V11a1,1,0,0,0,1,1h0a1,1,0,0,0,1-1V6a1,1,0,0,0-1.28-1l-4.8,1.41a1,1,0,1,0,.57,1.92l2-.6C36.35,13.29,24.19,27.14,4.8,31Z"/><path fill="#0F0" d="M45,41H44V26a1,1,0,0,0-1-1H33a1,1,0,0,0-1,1V41H30V32a1,1,0,0,0-1-1H19a1,1,0,0,0-1,1v9H16V36a1,1,0,0,0-1-1H5a1,1,0,0,0-1,1v5H3a1,1,0,0,0,0,2H45a1,1,0,0,0,0-2ZM6,41V37h8v4Zm14,0V33h8v8Zm14,0V27h8V41Z"/><path fill="#0F0" d="M5.71,15.71l.29-.3V21a1,1,0,0,0,1,1H21a1,1,0,0,0,1-1V15.41l.29.3a1,1,0,0,0,1.42-1.42l-9-9a1,1,0,0,0-1.42,0l-9,9a1,1,0,0,0,1.42,1.42ZM12,20V16h4v4ZM14,7.41l6,6V20H18V15a1,1,0,0,0-1-1H11a1,1,0,0,0-1,1v5H8V13.41Z"/></svg>
