<svg width="742" height="257" viewBox="0 0 742 257" fill="none" xmlns="http://www.w3.org/2000/svg">
<rect width="742" height="257" fill="black"/>
<path d="M255.757 105.22C255.236 105.267 254.75 105.515 254.396 105.915C254.043 106.316 253.846 106.84 253.846 107.383C253.846 107.927 254.043 108.451 254.396 108.851C254.75 109.251 255.236 109.5 255.757 109.546C256.046 109.572 256.337 109.535 256.611 109.438C256.885 109.341 257.136 109.186 257.35 108.983C257.563 108.779 257.734 108.532 257.85 108.257C257.966 107.981 258.027 107.684 258.027 107.383C258.027 107.082 257.966 106.785 257.85 106.51C257.734 106.234 257.563 105.987 257.35 105.784C257.136 105.58 256.885 105.426 256.611 105.328C256.337 105.231 256.046 105.195 255.757 105.22Z" fill="white"/>
<path d="M235.576 110.618C237.3 110.618 238.697 109.167 238.697 107.377C238.697 105.588 237.3 104.137 235.576 104.137C233.853 104.137 232.456 105.588 232.456 107.377C232.456 109.167 233.853 110.618 235.576 110.618Z" fill="white"/>
<path d="M215.371 103.046C214.547 103.046 213.741 103.3 213.057 103.775C212.371 104.251 211.838 104.926 211.523 105.717C211.207 106.507 211.125 107.377 211.285 108.216C211.446 109.055 211.843 109.826 212.425 110.431C213.008 111.036 213.75 111.448 214.558 111.615C215.366 111.782 216.204 111.696 216.965 111.369C217.726 111.041 218.377 110.487 218.834 109.776C219.292 109.064 219.536 108.228 219.536 107.372C219.536 106.225 219.097 105.125 218.316 104.314C217.535 103.502 216.475 103.046 215.371 103.046Z" fill="white"/>
<path d="M255.763 127.823C255.349 127.823 254.944 127.951 254.6 128.19C254.256 128.43 253.988 128.769 253.83 129.167C253.672 129.565 253.632 130.002 253.714 130.423C253.796 130.845 253.996 131.232 254.29 131.535C254.584 131.838 254.958 132.043 255.365 132.125C255.771 132.207 256.192 132.162 256.574 131.995C256.955 131.828 257.281 131.548 257.509 131.189C257.736 130.829 257.857 130.408 257.853 129.978C257.853 129.694 257.799 129.412 257.694 129.15C257.589 128.887 257.435 128.649 257.24 128.449C257.046 128.248 256.815 128.09 256.562 127.983C256.308 127.875 256.037 127.821 255.763 127.823Z" fill="white"/>
<path d="M235.595 126.732C234.987 126.732 234.393 126.919 233.887 127.27C233.382 127.621 232.988 128.119 232.755 128.703C232.522 129.286 232.462 129.928 232.58 130.547C232.699 131.167 232.992 131.735 233.422 132.182C233.851 132.628 234.399 132.932 234.996 133.055C235.592 133.179 236.21 133.116 236.772 132.874C237.334 132.632 237.814 132.223 238.151 131.698C238.489 131.173 238.67 130.556 238.67 129.925C238.67 129.078 238.346 128.266 237.769 127.667C237.193 127.068 236.411 126.732 235.595 126.732Z" fill="white"/>
<path d="M215.371 125.67C214.546 125.67 213.74 125.924 213.055 126.4C212.37 126.877 211.836 127.553 211.521 128.345C211.206 129.136 211.125 130.006 211.287 130.846C211.449 131.686 211.847 132.456 212.431 133.06C213.015 133.665 213.759 134.076 214.568 134.241C215.376 134.406 216.215 134.318 216.976 133.988C217.736 133.658 218.386 133.101 218.842 132.388C219.298 131.674 219.539 130.837 219.536 129.98C219.536 129.413 219.428 128.851 219.219 128.327C219.009 127.803 218.702 127.327 218.315 126.927C217.928 126.527 217.469 126.209 216.964 125.994C216.459 125.778 215.917 125.668 215.371 125.67Z" fill="white"/>
<path d="M255.763 150.434C255.35 150.434 254.945 150.561 254.602 150.799C254.258 151.038 253.99 151.377 253.832 151.774C253.674 152.17 253.632 152.607 253.713 153.028C253.794 153.449 253.993 153.836 254.285 154.14C254.577 154.443 254.95 154.65 255.355 154.734C255.761 154.817 256.181 154.774 256.563 154.61C256.945 154.446 257.272 154.168 257.501 153.81C257.731 153.454 257.854 153.034 257.854 152.605C257.855 152.319 257.803 152.036 257.699 151.771C257.594 151.507 257.44 151.267 257.246 151.065C257.051 150.863 256.82 150.703 256.566 150.595C256.311 150.486 256.038 150.432 255.763 150.434Z" fill="white"/>
<path d="M235.576 155.839C237.3 155.839 238.697 154.388 238.697 152.599C238.697 150.809 237.3 149.358 235.576 149.358C233.853 149.358 232.456 150.809 232.456 152.599C232.456 154.388 233.853 155.839 235.576 155.839Z" fill="white"/>
<path d="M215.371 148.269C214.547 148.269 213.741 148.523 213.057 148.998C212.371 149.473 211.838 150.149 211.523 150.939C211.207 151.73 211.125 152.6 211.285 153.438C211.446 154.278 211.843 155.049 212.425 155.653C213.008 156.258 213.75 156.671 214.558 156.837C215.366 157.004 216.204 156.918 216.965 156.591C217.726 156.264 218.377 155.709 218.834 154.998C219.292 154.287 219.536 153.45 219.536 152.595C219.536 151.447 219.097 150.347 218.316 149.536C217.535 148.725 216.475 148.269 215.371 148.269Z" fill="white"/>
<path d="M255.763 172.58C255.349 172.58 254.944 172.708 254.6 172.947C254.256 173.186 253.988 173.526 253.83 173.924C253.672 174.322 253.632 174.759 253.714 175.18C253.796 175.602 253.996 175.989 254.29 176.292C254.584 176.595 254.958 176.8 255.365 176.882C255.771 176.964 256.192 176.919 256.574 176.752C256.955 176.585 257.281 176.304 257.509 175.946C257.736 175.586 257.857 175.165 257.853 174.735C257.853 174.451 257.799 174.169 257.694 173.907C257.589 173.644 257.435 173.406 257.24 173.206C257.046 173.005 256.815 172.847 256.562 172.739C256.308 172.632 256.037 172.578 255.763 172.58Z" fill="white"/>
<path d="M235.571 171.96C235.042 171.96 234.525 172.123 234.085 172.429C233.645 172.734 233.302 173.167 233.1 173.675C232.897 174.183 232.844 174.741 232.948 175.28C233.051 175.819 233.305 176.313 233.68 176.702C234.054 177.09 234.53 177.355 235.049 177.462C235.568 177.569 236.105 177.514 236.594 177.304C237.083 177.094 237.501 176.738 237.794 176.281C238.088 175.824 238.245 175.287 238.245 174.738C238.245 174.001 237.963 173.295 237.462 172.774C236.96 172.253 236.28 171.96 235.571 171.96Z" fill="white"/>
<path d="M215.367 171.033C214.662 171.033 213.973 171.25 213.386 171.657C212.8 172.064 212.343 172.642 212.073 173.319C211.803 173.995 211.732 174.74 211.87 175.458C212.007 176.177 212.347 176.836 212.846 177.355C213.345 177.872 213.98 178.225 214.672 178.368C215.363 178.511 216.08 178.438 216.732 178.157C217.384 177.877 217.94 177.402 218.332 176.793C218.724 176.184 218.933 175.469 218.933 174.736C218.933 173.754 218.558 172.812 217.889 172.117C217.22 171.423 216.313 171.033 215.367 171.033Z" fill="white"/>
<path d="M255.763 194.717C255.35 194.717 254.945 194.845 254.602 195.083C254.258 195.322 253.99 195.661 253.832 196.057C253.674 196.454 253.632 196.89 253.713 197.312C253.794 197.733 253.993 198.119 254.285 198.423C254.577 198.727 254.95 198.933 255.355 199.017C255.761 199.101 256.181 199.058 256.563 198.894C256.945 198.729 257.272 198.451 257.501 198.094C257.731 197.737 257.854 197.318 257.854 196.888C257.855 196.602 257.803 196.319 257.699 196.055C257.594 195.791 257.44 195.55 257.246 195.348C257.051 195.147 256.82 194.986 256.566 194.878C256.311 194.77 256.038 194.715 255.763 194.717Z" fill="white"/>
<path d="M235.563 194.464C235.092 194.464 234.632 194.609 234.24 194.881C233.848 195.153 233.543 195.539 233.362 195.991C233.182 196.443 233.135 196.94 233.227 197.42C233.319 197.9 233.546 198.341 233.879 198.687C234.212 199.033 234.637 199.269 235.099 199.365C235.561 199.46 236.04 199.411 236.475 199.224C236.91 199.036 237.283 198.719 237.544 198.312C237.806 197.906 237.946 197.427 237.946 196.938C237.946 196.282 237.695 195.652 237.248 195.188C236.801 194.724 236.195 194.464 235.563 194.464Z" fill="white"/>
<path d="M215.377 193.795C214.788 193.795 214.211 193.977 213.721 194.317C213.231 194.657 212.848 195.141 212.623 195.707C212.397 196.272 212.338 196.895 212.453 197.496C212.568 198.097 212.852 198.648 213.269 199.081C213.686 199.515 214.218 199.809 214.796 199.929C215.374 200.048 215.974 199.987 216.519 199.753C217.064 199.518 217.529 199.121 217.857 198.612C218.185 198.103 218.359 197.504 218.359 196.892C218.361 196.485 218.286 196.081 218.137 195.704C217.988 195.327 217.768 194.985 217.491 194.698C217.213 194.409 216.884 194.181 216.521 194.027C216.159 193.872 215.77 193.793 215.377 193.795Z" fill="white"/>
<path d="M113.946 105.212C113.531 105.209 113.125 105.334 112.779 105.572C112.433 105.809 112.162 106.148 112.002 106.545C111.842 106.942 111.799 107.38 111.879 107.803C111.959 108.225 112.159 108.614 112.452 108.918C112.746 109.223 113.119 109.43 113.526 109.513C113.933 109.596 114.355 109.552 114.738 109.386C115.12 109.22 115.446 108.939 115.675 108.579C115.903 108.22 116.024 107.798 116.021 107.367C116.021 106.796 115.802 106.248 115.413 105.844C115.024 105.439 114.496 105.212 113.946 105.212Z" fill="white"/>
<path d="M134.142 110.618C135.866 110.618 137.263 109.167 137.263 107.377C137.263 105.588 135.866 104.137 134.142 104.137C132.419 104.137 131.022 105.588 131.022 107.377C131.022 109.167 132.419 110.618 134.142 110.618Z" fill="white"/>
<path d="M154.34 103.046C153.516 103.046 152.711 103.3 152.026 103.775C151.341 104.251 150.807 104.926 150.492 105.717C150.177 106.507 150.094 107.377 150.255 108.216C150.416 109.055 150.813 109.826 151.395 110.431C151.978 111.036 152.72 111.448 153.528 111.615C154.336 111.782 155.173 111.696 155.934 111.369C156.696 111.041 157.346 110.487 157.804 109.776C158.262 109.064 158.506 108.228 158.506 107.372C158.506 106.225 158.067 105.125 157.286 104.314C156.505 103.502 155.445 103.046 154.34 103.046Z" fill="white"/>
<path d="M113.946 127.823C113.531 127.82 113.125 127.945 112.779 128.183C112.433 128.42 112.162 128.759 112.002 129.156C111.842 129.553 111.799 129.991 111.879 130.414C111.959 130.836 112.159 131.224 112.452 131.529C112.746 131.834 113.119 132.041 113.526 132.124C113.933 132.207 114.355 132.163 114.738 131.997C115.12 131.83 115.446 131.55 115.675 131.19C115.903 130.831 116.024 130.409 116.021 129.978C116.017 129.408 115.797 128.862 115.408 128.459C115.02 128.056 114.495 127.827 113.946 127.823Z" fill="white"/>
<path d="M134.129 126.732C133.521 126.732 132.927 126.919 132.421 127.27C131.916 127.621 131.522 128.119 131.289 128.703C131.056 129.286 130.995 129.928 131.114 130.547C131.233 131.167 131.525 131.735 131.955 132.182C132.385 132.628 132.933 132.932 133.529 133.055C134.126 133.179 134.744 133.116 135.306 132.874C135.867 132.632 136.347 132.223 136.685 131.698C137.023 131.173 137.203 130.556 137.203 129.925C137.203 129.078 136.879 128.266 136.303 127.667C135.726 127.068 134.944 126.732 134.129 126.732Z" fill="white"/>
<path d="M154.34 125.67C153.516 125.67 152.71 125.924 152.024 126.4C151.339 126.877 150.805 127.553 150.49 128.345C150.176 129.136 150.094 130.006 150.256 130.846C150.418 131.686 150.816 132.456 151.4 133.06C151.984 133.665 152.728 134.076 153.537 134.241C154.346 134.406 155.184 134.318 155.945 133.988C156.706 133.658 157.355 133.101 157.811 132.388C158.267 131.674 158.508 130.837 158.506 129.98C158.506 129.413 158.398 128.851 158.188 128.327C157.979 127.803 157.672 127.327 157.285 126.927C156.898 126.527 156.438 126.209 155.933 125.994C155.428 125.778 154.887 125.668 154.34 125.67Z" fill="white"/>
<path d="M113.952 150.432C113.663 150.407 113.372 150.443 113.098 150.54C112.824 150.637 112.572 150.792 112.359 150.995C112.145 151.199 111.975 151.446 111.859 151.722C111.742 151.997 111.682 152.294 111.682 152.595C111.682 152.896 111.742 153.193 111.859 153.469C111.975 153.744 112.145 153.991 112.359 154.195C112.572 154.398 112.824 154.553 113.098 154.65C113.372 154.747 113.663 154.784 113.952 154.758C114.473 154.712 114.959 154.463 115.313 154.063C115.666 153.662 115.863 153.139 115.863 152.595C115.863 152.052 115.666 151.528 115.313 151.127C114.959 150.727 114.473 150.479 113.952 150.432Z" fill="white"/>
<path d="M134.643 155.791C136.344 155.505 137.499 153.84 137.223 152.074C136.947 150.307 135.344 149.108 133.643 149.394C131.942 149.681 130.787 151.345 131.063 153.112C131.339 154.879 132.942 156.078 134.643 155.791Z" fill="white"/>
<path d="M154.34 148.269C153.516 148.269 152.711 148.523 152.026 148.998C151.341 149.473 150.807 150.149 150.492 150.939C150.177 151.73 150.094 152.6 150.255 153.438C150.416 154.278 150.813 155.049 151.395 155.653C151.978 156.258 152.72 156.671 153.528 156.837C154.336 157.004 155.173 156.918 155.934 156.591C156.696 156.264 157.346 155.709 157.804 154.998C158.262 154.287 158.506 153.45 158.506 152.595C158.506 151.447 158.067 150.347 157.286 149.536C156.505 148.725 155.445 148.269 154.34 148.269Z" fill="white"/>
<path d="M113.946 172.58C113.531 172.577 113.125 172.702 112.779 172.939C112.433 173.177 112.162 173.516 112.002 173.913C111.842 174.31 111.799 174.748 111.879 175.171C111.959 175.593 112.159 175.981 112.452 176.286C112.746 176.59 113.119 176.798 113.526 176.881C113.933 176.964 114.355 176.92 114.738 176.753C115.12 176.587 115.446 176.306 115.675 175.947C115.903 175.587 116.024 175.166 116.021 174.735C116.017 174.165 115.797 173.619 115.408 173.216C115.02 172.813 114.495 172.584 113.946 172.58Z" fill="white"/>
<path d="M134.141 171.96C133.612 171.96 133.095 172.123 132.655 172.429C132.215 172.734 131.872 173.167 131.67 173.675C131.467 174.183 131.414 174.741 131.517 175.28C131.621 175.819 131.876 176.313 132.25 176.702C132.623 177.09 133.1 177.355 133.619 177.462C134.137 177.569 134.676 177.514 135.164 177.304C135.653 177.094 136.071 176.738 136.365 176.281C136.658 175.824 136.815 175.287 136.815 174.738C136.815 174.001 136.533 173.295 136.032 172.774C135.53 172.253 134.85 171.96 134.141 171.96Z" fill="white"/>
<path d="M154.336 171.033C153.631 171.033 152.941 171.25 152.355 171.657C151.768 172.064 151.311 172.642 151.041 173.319C150.771 173.995 150.701 174.74 150.838 175.458C150.976 176.177 151.315 176.836 151.814 177.355C152.313 177.872 152.948 178.225 153.64 178.368C154.332 178.511 155.049 178.438 155.7 178.157C156.352 177.877 156.909 177.402 157.301 176.793C157.693 176.184 157.902 175.469 157.902 174.736C157.902 173.754 157.526 172.812 156.857 172.117C156.189 171.423 155.282 171.033 154.336 171.033Z" fill="white"/>
<path d="M113.952 194.717C113.663 194.691 113.372 194.728 113.098 194.825C112.824 194.922 112.572 195.077 112.359 195.281C112.145 195.484 111.975 195.731 111.859 196.006C111.742 196.282 111.682 196.579 111.682 196.88C111.682 197.181 111.742 197.478 111.859 197.754C111.975 198.029 112.145 198.276 112.359 198.479C112.572 198.683 112.824 198.838 113.098 198.935C113.372 199.032 113.663 199.069 113.952 199.043C114.473 198.996 114.959 198.748 115.313 198.348C115.666 197.947 115.863 197.424 115.863 196.88C115.863 196.336 115.666 195.813 115.313 195.412C114.959 195.012 114.473 194.764 113.952 194.717Z" fill="white"/>
<path d="M134.13 194.464C133.659 194.464 133.198 194.609 132.807 194.881C132.414 195.153 132.109 195.539 131.929 195.991C131.749 196.443 131.701 196.941 131.793 197.42C131.885 197.9 132.112 198.341 132.445 198.688C132.778 199.033 133.203 199.269 133.665 199.365C134.127 199.46 134.606 199.411 135.042 199.224C135.477 199.036 135.849 198.719 136.111 198.313C136.373 197.906 136.512 197.427 136.512 196.938C136.514 196.613 136.454 196.29 136.335 195.989C136.216 195.688 136.041 195.414 135.819 195.184C135.598 194.954 135.334 194.772 135.044 194.648C134.754 194.524 134.443 194.462 134.13 194.464Z" fill="white"/>
<path d="M154.348 199.989C155.986 199.964 157.294 198.564 157.27 196.863C157.246 195.162 155.899 193.803 154.261 193.828C152.622 193.853 151.314 195.252 151.338 196.954C151.362 198.655 152.709 200.013 154.348 199.989Z" fill="white"/>
<path d="M255.741 68.3666C256.918 68.3666 258.068 68.0045 259.046 67.3258C260.024 66.6471 260.787 65.6823 261.237 64.5534C261.687 63.4248 261.805 62.1824 261.576 60.9844C261.346 59.7859 260.78 58.6854 259.948 57.8214C259.116 56.9574 258.056 56.3693 256.902 56.1308C255.748 55.8926 254.552 56.0149 253.465 56.4823C252.378 56.9497 251.449 57.7417 250.795 58.7573C250.142 59.7733 249.793 60.9677 249.793 62.1893C249.793 63.0005 249.947 63.804 250.245 64.5534C250.544 65.3028 250.983 65.9839 251.535 66.5573C252.088 67.1311 252.743 67.5863 253.465 67.8964C254.187 68.2069 254.96 68.3666 255.741 68.3666Z" fill="#93F4FF"/>
<path d="M235.565 55.0542C234.212 55.0542 232.89 55.4708 231.765 56.2514C230.64 57.0317 229.763 58.1412 229.246 59.4392C228.728 60.7369 228.593 62.1654 228.857 63.543C229.12 64.9211 229.772 66.1867 230.728 67.1799C231.685 68.1735 232.904 68.8498 234.231 69.1241C235.558 69.398 236.933 69.2574 238.183 68.7197C239.433 68.1821 240.501 67.2717 241.252 66.1038C242.004 64.9354 242.405 63.5621 242.405 62.1572C242.405 60.2736 241.684 58.4667 240.402 57.1346C239.119 55.8024 237.379 55.0542 235.565 55.0542Z" fill="#93F4FF"/>
<path d="M215.356 54.5933C213.915 54.5933 212.506 55.0371 211.308 55.8681C210.11 56.6996 209.176 57.8814 208.625 59.2636C208.073 60.6462 207.929 62.1677 208.21 63.6352C208.491 65.1027 209.185 66.4512 210.204 67.509C211.223 68.5673 212.521 69.2878 213.934 69.58C215.348 69.8718 216.813 69.7218 218.144 69.1492C219.475 68.5766 220.613 67.6069 221.414 66.3626C222.214 65.1186 222.641 63.6555 222.641 62.1592C222.641 60.1524 221.874 58.2281 220.507 56.8094C219.141 55.3902 217.288 54.5933 215.356 54.5933Z" fill="#93F4FF"/>
<path d="M195.191 54C193.646 54 192.137 54.4755 190.853 55.3667C189.569 56.2575 188.568 57.5239 187.977 59.0056C187.386 60.4873 187.231 62.1178 187.532 63.6906C187.834 65.2637 188.577 66.7085 189.669 67.8427C190.761 68.9766 192.153 69.7487 193.667 70.0617C195.182 70.3746 196.752 70.2141 198.179 69.6004C199.606 68.9867 200.825 67.9472 201.683 66.6138C202.541 65.2804 202.999 63.7125 202.999 62.1089C202.995 59.9594 202.171 57.8994 200.707 56.3795C199.244 54.8599 197.26 54.0041 195.191 54Z" fill="#93F4FF"/>
<path d="M255.741 78.6001C254.565 78.6001 253.415 78.9622 252.436 79.6409C251.458 80.32 250.696 81.2844 250.245 82.4133C249.795 83.5419 249.678 84.7843 249.907 85.9823C250.137 87.1808 250.703 88.2813 251.535 89.1453C252.367 90.0093 253.427 90.5978 254.581 90.8359C255.735 91.0745 256.931 90.9517 258.018 90.4844C259.105 90.017 260.034 89.225 260.687 88.2094C261.341 87.1934 261.69 85.999 261.69 84.7774C261.69 83.9662 261.536 83.1627 261.237 82.4133C260.938 81.6639 260.5 80.9828 259.947 80.4094C259.395 79.8356 258.739 79.3808 258.018 79.0703C257.296 78.7598 256.522 78.6001 255.741 78.6001Z" fill="#93F4FF"/>
<path d="M235.565 77.6704C234.212 77.6704 232.89 78.087 231.765 78.8677C230.64 79.6479 229.763 80.7574 229.246 82.0554C228.728 83.3535 228.593 84.7816 228.857 86.1592C229.12 87.5373 229.772 88.8029 230.728 89.7965C231.685 90.7897 232.904 91.4664 234.231 91.7403C235.558 92.0142 236.933 91.8736 238.183 91.3359C239.433 90.7987 240.501 89.888 241.252 88.72C242.004 87.552 242.405 86.1784 242.405 84.7738C242.405 82.8898 241.684 81.0829 240.402 79.7512C239.119 78.419 237.379 77.6704 235.565 77.6704Z" fill="#93F4FF"/>
<path d="M215.356 92.3442C219.379 92.3442 222.641 88.9568 222.641 84.7778C222.641 80.5992 219.379 77.2119 215.356 77.2119C211.332 77.2119 208.07 80.5992 208.07 84.7778C208.07 88.9568 211.332 92.3442 215.356 92.3442Z" fill="#93F4FF"/>
<path d="M195.191 76.6646C193.646 76.6646 192.137 77.14 190.853 78.0313C189.569 78.9221 188.568 80.1884 187.977 81.6702C187.386 83.1519 187.231 84.7824 187.532 86.3555C187.834 87.9283 188.577 89.373 189.669 90.5073C190.761 91.6411 192.153 92.4133 193.667 92.7262C195.182 93.0391 196.752 92.8786 198.179 92.265C199.606 91.6513 200.825 90.6117 201.683 89.2783C202.541 87.9449 202.999 86.3771 202.999 84.7734C202.999 82.6228 202.176 80.5603 200.712 79.0395C199.248 77.5188 197.262 76.6646 195.191 76.6646Z" fill="#93F4FF"/>
<path d="M195.191 99.272C193.646 99.272 192.137 99.7479 190.853 100.639C189.569 101.53 188.568 102.796 187.977 104.278C187.386 105.759 187.231 107.39 187.532 108.963C187.834 110.536 188.577 111.98 189.669 113.115C190.761 114.249 192.153 115.021 193.667 115.334C195.182 115.647 196.752 115.486 198.179 114.872C199.606 114.259 200.825 113.22 201.683 111.886C202.541 110.552 202.999 108.984 202.999 107.381C202.995 105.232 202.171 103.172 200.707 101.652C199.244 100.132 197.26 99.2764 195.191 99.272Z" fill="#93F4FF"/>
<path d="M195.191 121.887C193.646 121.887 192.135 122.363 190.851 123.254C189.567 124.146 188.566 125.413 187.975 126.896C187.384 128.379 187.231 130.01 187.534 131.583C187.836 133.157 188.581 134.601 189.675 135.735C190.768 136.868 192.161 137.639 193.677 137.95C195.192 138.261 196.763 138.098 198.189 137.482C199.616 136.866 200.834 135.824 201.69 134.489C202.547 133.153 203.002 131.584 202.999 129.979C202.995 127.832 202.171 125.773 200.707 124.256C199.242 122.739 197.259 121.887 195.191 121.887Z" fill="#93F4FF"/>
<path d="M195.166 144.871C193.695 144.871 192.257 145.324 191.033 146.173C189.81 147.022 188.856 148.228 188.293 149.64C187.73 151.052 187.583 152.605 187.87 154.104C188.157 155.602 188.865 156.979 189.906 158.059C190.946 159.14 192.272 159.876 193.715 160.174C195.158 160.472 196.654 160.319 198.013 159.734C199.373 159.149 200.535 158.159 201.352 156.889C202.17 155.618 202.606 154.124 202.606 152.596C202.606 150.548 201.822 148.582 200.427 147.133C199.032 145.685 197.14 144.871 195.166 144.871Z" fill="#93F4FF"/>
<path d="M195.167 167.026C193.694 167.026 192.255 167.48 191.032 168.33C189.808 169.179 188.855 170.387 188.292 171.8C187.729 173.212 187.583 174.766 187.871 176.265C188.16 177.764 188.87 179.141 189.912 180.221C190.953 181.301 192.28 182.035 193.725 182.331C195.169 182.628 196.665 182.472 198.024 181.885C199.383 181.298 200.544 180.305 201.36 179.033C202.175 177.76 202.609 176.265 202.606 174.736C202.606 173.723 202.413 172.719 202.039 171.782C201.665 170.846 201.117 169.995 200.426 169.279C199.735 168.563 198.915 167.995 198.012 167.609C197.11 167.222 196.143 167.024 195.167 167.026Z" fill="#93F4FF"/>
<path d="M195.162 189.794C193.809 189.794 192.487 190.211 191.362 190.991C190.237 191.771 189.36 192.881 188.843 194.179C188.325 195.477 188.189 196.905 188.454 198.283C188.717 199.66 189.369 200.926 190.325 201.92C191.282 202.913 192.501 203.59 193.827 203.863C195.154 204.138 196.53 203.997 197.78 203.459C199.029 202.922 200.097 202.011 200.849 200.843C201.601 199.675 202.002 198.302 202.002 196.897C202.002 195.013 201.281 193.206 199.998 191.874C198.716 190.542 196.976 189.794 195.162 189.794Z" fill="#93F4FF"/>
<path d="M174.604 188.827C173.251 188.827 171.928 189.244 170.804 190.024C169.679 190.805 168.802 191.914 168.284 193.212C167.767 194.51 167.631 195.938 167.895 197.316C168.159 198.694 168.811 199.96 169.767 200.953C170.724 201.946 171.942 202.623 173.269 202.897C174.596 203.171 175.971 203.03 177.221 202.493C178.471 201.955 179.539 201.045 180.291 199.876C181.043 198.708 181.444 197.335 181.444 195.93C181.444 194.046 180.723 192.24 179.44 190.908C178.158 189.575 176.418 188.827 174.604 188.827Z" fill="#93F4FF"/>
<path d="M113.949 55.9775C112.772 55.9775 111.622 56.34 110.644 57.0187C109.665 57.6974 108.903 58.6622 108.453 59.7912C108.003 60.9198 107.885 62.1617 108.114 63.3602C108.344 64.5586 108.911 65.6592 109.742 66.5232C110.574 67.3872 111.634 67.9752 112.788 68.2138C113.942 68.4519 115.138 68.3296 116.225 67.8623C117.312 67.3945 118.241 66.6028 118.894 65.5868C119.548 64.5712 119.897 63.3768 119.897 62.1552C119.897 60.5166 119.27 58.9455 118.155 57.7868C117.039 56.6286 115.526 55.9775 113.949 55.9775Z" fill="#93F4FF"/>
<path d="M134.136 55.0542C132.783 55.0542 131.46 55.4708 130.335 56.2514C129.211 57.0317 128.334 58.1412 127.816 59.4392C127.299 60.7369 127.163 62.1654 127.427 63.543C127.691 64.9211 128.342 66.1867 129.299 67.1799C130.256 68.1735 131.474 68.8498 132.801 69.1241C134.128 69.398 135.503 69.2574 136.753 68.7197C138.003 68.1821 139.071 67.2717 139.823 66.1038C140.574 64.9354 140.976 63.5621 140.976 62.1572C140.976 60.2736 140.255 58.4667 138.972 57.1346C137.69 55.8024 135.95 55.0542 134.136 55.0542Z" fill="#93F4FF"/>
<path d="M154.353 54.5933C152.912 54.5933 151.503 55.0371 150.305 55.8681C149.107 56.6996 148.173 57.8814 147.622 59.2636C147.07 60.6462 146.926 62.1677 147.207 63.6352C147.488 65.1027 148.182 66.4512 149.201 67.509C150.22 68.5673 151.518 69.2878 152.931 69.58C154.345 69.8718 155.81 69.7218 157.141 69.1492C158.472 68.5766 159.61 67.6069 160.411 66.3626C161.211 65.1186 161.639 63.6555 161.639 62.1592C161.639 60.1524 160.871 58.2281 159.505 56.8094C158.138 55.3902 156.285 54.5933 154.353 54.5933Z" fill="#93F4FF"/>
<path d="M174.536 54C172.992 54 171.482 54.4755 170.198 55.3667C168.915 56.2575 167.913 57.5239 167.323 59.0056C166.732 60.4873 166.577 62.1178 166.878 63.6906C167.18 65.2637 167.923 66.7085 169.015 67.8427C170.107 68.9766 171.499 69.7487 173.013 70.0617C174.528 70.3746 176.098 70.2141 177.525 69.6004C178.952 68.9867 180.171 67.9472 181.029 66.6138C181.887 65.2804 182.345 63.7125 182.345 62.1089C182.345 59.9582 181.522 57.8957 180.058 56.375C178.594 54.8542 176.607 54 174.536 54Z" fill="#93F4FF"/>
<path d="M113.949 78.6001C112.772 78.6001 111.622 78.9622 110.644 79.6409C109.665 80.32 108.903 81.2844 108.453 82.4133C108.003 83.5419 107.885 84.7843 108.114 85.9823C108.344 87.1808 108.911 88.2813 109.742 89.1453C110.574 90.0093 111.634 90.5978 112.788 90.8359C113.942 91.0745 115.138 90.9517 116.225 90.4844C117.312 90.017 118.241 89.225 118.894 88.2094C119.548 87.1934 119.897 85.999 119.897 84.7774C119.897 83.9662 119.743 83.1627 119.444 82.4133C119.145 81.6639 118.707 80.9828 118.155 80.4094C117.602 79.8356 116.947 79.3808 116.225 79.0703C115.503 78.7598 114.73 78.6001 113.949 78.6001Z" fill="#93F4FF"/>
<path d="M134.136 77.6704C132.783 77.6704 131.46 78.087 130.335 78.8677C129.211 79.6479 128.334 80.7574 127.816 82.0554C127.299 83.3535 127.163 84.7816 127.427 86.1592C127.691 87.5373 128.342 88.8029 129.299 89.7965C130.256 90.7897 131.474 91.4664 132.801 91.7403C134.128 92.0142 135.503 91.8736 136.753 91.3359C138.003 90.7987 139.071 89.888 139.823 88.72C140.574 87.552 140.976 86.1784 140.976 84.7738C140.976 82.8898 140.255 81.0829 138.972 79.7512C137.69 78.419 135.95 77.6704 134.136 77.6704Z" fill="#93F4FF"/>
<path d="M154.353 77.2119C152.912 77.2119 151.503 77.6557 150.305 78.4872C149.107 79.3183 148.173 80.5001 147.622 81.8827C147.07 83.2652 146.926 84.7864 147.207 86.2543C147.488 87.7218 148.182 89.0698 149.201 90.1281C150.22 91.1863 151.518 91.9069 152.931 92.1987C154.345 92.4905 155.81 92.3409 157.141 91.7683C158.472 91.1957 159.61 90.2256 160.411 88.9816C161.211 87.7372 161.639 86.2746 161.639 84.7782C161.639 83.7846 161.45 82.8007 161.084 81.8827C160.718 80.9646 160.181 80.1307 159.505 79.428C158.828 78.7253 158.025 78.1682 157.141 77.7878C156.257 77.4078 155.31 77.2119 154.353 77.2119Z" fill="#93F4FF"/>
<path d="M174.536 76.6646C172.992 76.6646 171.482 77.14 170.198 78.0313C168.914 78.9221 167.913 80.1889 167.323 81.6702C166.732 83.1519 166.577 84.7824 166.878 86.3555C167.18 87.9283 167.923 89.373 169.015 90.5073C170.107 91.6411 171.499 92.4133 173.013 92.7262C174.528 93.0392 176.098 92.8786 177.525 92.265C178.952 91.6513 180.171 90.6117 181.029 89.2784C181.887 87.945 182.345 86.3771 182.345 84.7734C182.347 83.7079 182.146 82.6524 181.755 81.6677C181.363 80.683 180.788 79.7881 180.062 79.0351C179.337 78.2816 178.475 77.6842 177.527 77.2778C176.579 76.871 175.563 76.6625 174.536 76.6646Z" fill="#93F4FF"/>
<path d="M174.536 99.272C172.992 99.272 171.482 99.7479 170.198 100.639C168.915 101.53 167.913 102.796 167.323 104.278C166.732 105.759 166.577 107.39 166.878 108.963C167.18 110.536 167.923 111.98 169.015 113.115C170.107 114.249 171.499 115.021 173.013 115.334C174.528 115.647 176.098 115.486 177.525 114.872C178.952 114.259 180.171 113.22 181.029 111.886C181.887 110.552 182.345 108.984 182.345 107.381C182.345 105.23 181.522 103.168 180.058 101.647C178.594 100.127 176.607 99.272 174.536 99.272Z" fill="#93F4FF"/>
<path d="M174.536 121.887C172.991 121.887 171.481 122.363 170.197 123.254C168.913 124.146 167.911 125.413 167.321 126.896C166.73 128.379 166.577 130.01 166.88 131.583C167.182 133.157 167.927 134.601 169.021 135.735C170.114 136.868 171.507 137.639 173.023 137.95C174.538 138.261 176.109 138.098 177.535 137.482C178.962 136.866 180.18 135.824 181.036 134.489C181.892 133.153 182.348 131.584 182.345 129.979C182.345 128.915 182.143 127.862 181.75 126.879C181.358 125.896 180.782 125.003 180.057 124.251C179.332 123.5 178.471 122.904 177.524 122.498C176.576 122.092 175.561 121.885 174.536 121.887Z" fill="#93F4FF"/>
<path d="M174.543 144.871C173.071 144.867 171.631 145.318 170.405 146.165C169.18 147.012 168.224 148.217 167.659 149.629C167.093 151.04 166.944 152.594 167.229 154.094C167.514 155.593 168.222 156.972 169.262 158.054C170.301 159.136 171.627 159.873 173.07 160.172C174.514 160.472 176.011 160.32 177.371 159.735C178.731 159.151 179.894 158.161 180.712 156.89C181.53 155.619 181.967 154.125 181.967 152.596C181.967 150.55 181.185 148.588 179.793 147.139C178.401 145.691 176.513 144.875 174.543 144.871Z" fill="#93F4FF"/>
<path d="M175.218 167.026C173.746 167.024 172.305 167.474 171.08 168.322C169.854 169.17 168.898 170.376 168.333 171.788C167.768 173.201 167.619 174.755 167.906 176.256C168.192 177.756 168.901 179.134 169.943 180.215C170.984 181.297 172.311 182.033 173.756 182.33C175.2 182.628 176.697 182.474 178.057 181.887C179.417 181.3 180.579 180.307 181.395 179.034C182.211 177.761 182.646 176.265 182.642 174.736C182.638 172.693 181.855 170.734 180.463 169.289C179.072 167.844 177.186 167.031 175.218 167.026Z" fill="#93F4FF"/>
<path d="M294 114.805H307.805V156.221H321.611V114.805H335.416V101H294V114.805Z" fill="white"/>
<path d="M363.017 142.416H369.92V156.221H383.725V135.513H376.823V128.611H383.725V107.903H376.823V101H342.31V156.221H356.115V135.513H363.017V142.416ZM356.115 114.805H369.92V121.708H356.115V114.805Z" fill="white"/>
<path d="M390.619 114.805H404.424V142.416H390.619V156.221H432.035V142.416H418.23V114.805H432.035V101H390.619V114.805Z" fill="white"/>
<path d="M438.929 128.611H445.831V135.513H466.539V142.416H438.929V156.221H473.442V149.318H480.344V128.611H473.442V121.708H452.734V114.805H480.344V101H445.831V107.903H438.929V128.611Z" fill="white"/>
<path d="M487.238 114.805H501.043V156.221H514.849V114.805H528.654V101H487.238V114.805Z" fill="white"/>
<path d="M549.353 135.513H563.158V156.221H576.963V107.903H570.061V101H542.45V107.903H535.548V156.221H549.353V135.513ZM549.353 121.708V114.805H563.158V121.708H549.353Z" fill="white"/>
<path d="M604.565 135.513H611.468V156.221H625.273V101H611.468V114.805H604.565V107.903H597.662V101H583.857V156.221H597.662V128.611H604.565V135.513Z" fill="white"/>
</svg>
