<svg width="82" height="64" viewBox="0 0 82 64" fill="none" xmlns="http://www.w3.org/2000/svg">
<path fill-rule="evenodd" clip-rule="evenodd" d="M40.6353 7.54134L53.6892 0L81.2654 15.9237V47.7653L53.6892 63.689L40.6353 56.1477L27.5755 63.689L0 47.7653V15.9237L27.5755 0L40.6353 7.54134ZM45.4083 10.2975L55.1569 15.9237V47.7653L50.2412 50.6051L45.4683 47.8489L50.384 45.0088V18.6802L40.6353 13.0539H40.6237L35.8507 10.2975H35.8624L27.5755 5.51289L4.77295 18.6802V45.0088L27.5755 58.1761L35.8624 53.3973L26.1137 47.7653V15.9237L31.0778 13.0539L35.8507 15.8104L30.8867 18.6802V45.0088L40.6353 50.6409L40.6953 50.6051L45.4683 53.3615L45.4083 53.3973L53.6892 58.1761L76.4924 45.0088V18.6802L53.6892 5.51289L45.4083 10.2975Z" fill="white"/>
</svg>
