<svg width="100" height="100" viewBox="0 0 800 209" fill="none" xmlns="http://www.w3.org/2000/svg">
<path d="M38.3033 60.2352C35.5269 55.4265 37.1745 49.2774 41.9835 46.5009L81.1665 23.8787C85.9754 21.1023 92.1247 22.7499 94.9008 27.5588C97.6775 32.3677 96.0297 38.5169 91.2208 41.2933L52.0378 63.9158C47.2289 66.6919 41.0797 65.0441 38.3033 60.2352Z" fill="#37D5C7"/>
<path d="M65.9775 183.575C63.2014 178.766 64.8486 172.617 69.6575 169.841L108.841 147.218C113.65 144.442 119.798 146.089 122.575 150.898C125.352 155.707 123.704 161.857 118.895 164.633L79.7118 187.255C74.9029 190.032 68.7542 188.384 65.9775 183.575Z" fill="#37D5C7"/>
<path d="M85.8816 102.426C83.1049 97.6167 84.7526 91.4674 89.5616 88.6913L143.982 57.2713C148.791 54.4949 154.94 56.1425 157.717 60.9516C160.493 65.7606 158.846 71.9098 154.037 74.6859L99.6159 106.106C94.807 108.882 88.6577 107.235 85.8816 102.426Z" fill="#37D5C7"/>
<path d="M5.33992 148.926C2.56349 144.117 4.21114 137.968 9.02006 135.191L67.7945 101.258C72.6034 98.4814 78.7527 100.129 81.5288 104.938C84.3055 109.747 82.6577 115.896 77.8488 118.672L19.0744 152.606C14.2655 155.382 8.11636 153.735 5.33992 148.926Z" fill="#37D5C7"/>
<path d="M94.7419 62.4786C91.9652 57.6695 93.613 51.5204 98.4219 48.7439L109.306 42.46C114.115 39.6835 120.264 41.3312 123.04 46.1401C125.817 50.949 124.169 57.0981 119.36 59.8744L108.476 66.1586C103.667 68.9353 97.5181 67.2875 94.7419 62.4786Z" fill="#37D5C7"/>
<path d="M126.926 148.384C124.149 143.575 125.797 137.426 130.606 134.65L141.49 128.366C146.299 125.59 152.448 127.237 155.225 132.046C158.001 136.855 156.354 143.004 151.545 145.781L140.66 152.064C135.851 154.841 129.702 153.193 126.926 148.384Z" fill="#37D5C7"/>
<path d="M35.6597 166.25C32.8833 161.442 34.531 155.293 39.3399 152.516L50.224 146.232C55.0329 143.456 61.1821 145.103 63.9582 149.912C66.735 154.721 65.0872 160.871 60.2782 163.647L49.3942 169.931C44.5853 172.707 38.4362 171.059 35.6597 166.25Z" fill="#37D5C7"/>
<path d="M5.65095 79.0864C2.87452 74.2774 4.52217 68.1288 9.33112 65.3521L20.2152 59.0682C25.0241 56.2918 31.1733 57.9394 33.9498 62.7485C36.7262 67.5574 35.0785 73.7067 30.2696 76.4828L19.3855 82.767C14.5766 85.5431 8.42736 83.8953 5.65095 79.0864Z" fill="#37D5C7"/>
<path d="M5.49275 114.007C2.71632 109.198 4.36397 103.049 9.17289 100.273L76.6548 61.3119C81.4638 58.5356 87.6124 60.1836 90.3891 64.9919C93.1652 69.8009 91.5181 75.9501 86.7091 78.7269L19.2272 117.687C14.4183 120.464 8.26919 118.816 5.49275 114.007Z" fill="#37D5C7"/>
<path d="M68.3123 147.398C65.5362 142.59 67.184 136.44 71.9929 133.664L139.475 94.703C144.283 91.9268 150.432 93.5746 153.209 98.3835C155.985 103.192 154.337 109.341 149.529 112.118L82.0473 151.078C77.2383 153.855 71.089 152.207 68.3123 147.398Z" fill="#37D5C7"/>
<path fill-rule="evenodd" clip-rule="evenodd" d="M334.664 157.964C326.307 153.015 319.691 146.196 314.848 137.553L314.83 137.521C310.097 128.832 307.768 118.96 307.768 107.987C307.768 96.9217 309.954 87.0632 314.423 78.5015L314.431 78.4859C319.003 69.8471 325.288 63.0125 333.27 58.0453C341.305 53.0456 350.516 50.5859 360.807 50.5859C370.948 50.5859 379.911 52.9703 387.581 57.8508C395.327 62.5695 401.308 69.1695 405.498 77.5785C409.687 85.9856 411.744 95.4961 411.744 106.039C411.744 108.809 410.868 111.31 408.96 113.257L408.904 113.314L408.846 113.367C406.923 115.132 404.51 115.902 401.881 115.902H328.132C328.85 120.144 330.17 124.014 332.076 127.534C335.259 133.177 339.536 137.59 344.933 140.821C350.278 144.02 356.495 145.663 363.673 145.663C367.913 145.663 372.172 144.944 376.462 143.488C380.926 141.887 384.314 139.975 386.748 137.83L386.809 137.777C388.707 136.193 390.927 135.361 393.369 135.337C395.783 135.184 398.035 135.824 399.926 137.367L400.008 137.435L400.086 137.507C402.155 139.455 403.495 141.868 403.529 144.701C403.696 147.567 402.501 149.996 400.364 151.816C395.841 155.727 390.172 158.937 383.437 161.495L383.389 161.514C376.621 163.95 370.044 165.194 363.673 165.194C352.913 165.194 343.233 162.819 334.713 157.992L334.664 157.964ZM377.52 74.6913C372.99 71.6877 367.464 70.1176 360.807 70.1176C354.038 70.1176 348.234 71.7456 343.29 74.9116C338.307 78.1026 334.404 82.5367 331.578 88.2961C330.24 91.0865 329.226 94.0997 328.542 97.345H391.552C390.943 93.8119 389.92 90.5271 388.49 87.48C385.917 81.9934 382.273 77.7647 377.549 74.7098L377.52 74.6913Z" fill="#213257"/>
<path d="M453.322 56.2751L453.345 56.2607C459.936 52.3402 467.209 50.3909 475.1 50.3909C481.17 50.3909 486.245 51.2534 490.042 53.267C492.011 54.3116 493.664 55.754 494.63 57.7237C495.612 59.7263 495.707 61.9138 495.197 64.0816L495.18 64.1562C494.544 66.586 493.277 68.7795 491.014 69.9604C489.22 70.958 487.148 71.2392 485.013 71.0839L484.996 71.0828C483.363 70.9544 481.471 70.8254 479.319 70.6965L479.274 70.6941L479.229 70.6899C472.466 70.0738 466.568 70.8242 461.466 72.835L461.431 72.8487C456.451 74.7383 452.539 77.6475 449.596 81.5633C446.842 85.3932 445.417 89.9962 445.417 95.518V153.772C445.417 156.686 444.608 159.365 442.632 161.379C440.656 163.394 438.029 164.219 435.172 164.219C432.315 164.219 429.688 163.394 427.712 161.379C425.736 159.365 424.927 156.686 424.927 153.772V62.0075C424.927 59.0935 425.736 56.4145 427.712 54.3998C429.688 52.385 432.315 51.5599 435.172 51.5599C438.029 51.5599 440.656 52.385 442.632 54.3998C444.608 56.4145 445.417 59.0935 445.417 62.0075V62.3765C447.818 60.0529 450.453 58.0177 453.322 56.2751Z" fill="#213257"/>
<path d="M512.536 161.383L512.441 161.275C510.567 159.173 509.753 156.505 509.753 153.577V106.165C509.753 103.251 510.563 100.572 512.538 98.5571C514.587 96.4675 517.24 95.5225 520.189 95.5225C523.015 95.5225 525.548 96.4723 527.461 98.5559C529.539 100.542 530.434 103.214 530.434 106.165V153.577C530.434 156.585 529.508 159.29 527.459 161.38C525.515 163.362 522.975 164.22 520.189 164.22C517.319 164.22 514.703 163.391 512.641 161.48L512.536 161.383Z" fill="#213257"/>
<path fill-rule="evenodd" clip-rule="evenodd" d="M706.68 157.758L706.644 157.739C698.435 152.66 691.904 145.787 687.074 137.164L687.056 137.131C682.327 128.454 679.993 118.715 679.993 107.987C679.993 97.1223 682.393 87.3056 687.265 78.6167L687.283 78.585C692.25 69.9528 698.99 63.1456 707.462 58.2048C715.975 53.1084 725.545 50.5859 736.089 50.5859C746.626 50.5859 756.137 53.1064 764.531 58.2098C773.002 63.151 779.677 69.9612 784.519 78.5994C789.516 87.2776 792.047 97.0871 792.184 107.949V107.987V153.772C792.184 156.705 791.223 159.325 789.205 161.38L789.157 161.431L789.104 161.48C787.074 163.361 784.542 164.22 781.748 164.22C778.954 164.22 776.417 163.361 774.387 161.48L774.339 161.431L774.286 161.38C772.274 159.325 771.313 156.705 771.313 153.772V150.211C768.25 153.318 764.775 156.031 760.907 158.347L760.889 158.355C753.128 162.938 744.322 165.194 734.56 165.194C724.268 165.194 714.948 162.734 706.68 157.758ZM754.226 140.641L754.256 140.626C759.647 137.398 763.856 132.991 766.907 127.361L766.919 127.341C770.089 121.595 771.695 115.167 771.695 107.987C771.695 100.668 770.083 94.2525 766.931 88.6573L766.907 88.6143C763.856 82.9838 759.647 78.5773 754.256 75.3486L754.19 75.3086C748.972 72.0006 742.972 70.3122 736.089 70.3122C729.342 70.3122 723.325 71.9946 717.963 75.3235L717.922 75.3492C712.519 78.5838 708.238 83.0035 705.05 88.6573C701.898 94.2525 700.292 100.668 700.292 107.987C700.292 115.162 701.892 121.586 705.056 127.33C708.244 132.978 712.519 137.394 717.922 140.626C723.289 143.84 729.319 145.467 736.089 145.467C742.99 145.467 749.008 143.835 754.226 140.641Z" fill="#213257"/>
<path d="M240.327 157.386L240.333 157.398C241.25 159.422 242.493 161.153 244.156 162.377C245.852 163.627 247.813 164.22 249.915 164.22C252.092 164.22 254.13 163.656 255.899 162.422C257.649 161.201 258.95 159.451 259.885 157.386L301.705 65.4693C302.834 63.1361 302.91 60.6484 302.004 58.2218C301.09 55.6393 299.33 53.7002 296.91 52.466L296.831 52.426L296.751 52.3908C294.287 51.3142 291.706 51.2318 289.151 52.0857C286.504 52.8767 284.577 54.6911 283.484 57.2677L249.964 132.311L215.906 57.1396L215.863 57.0576C214.655 54.7701 212.849 53.0799 210.485 52.1527C207.958 51.1615 205.377 51.4189 202.957 52.6424C200.505 53.8184 198.609 55.6403 197.649 58.1874C196.713 60.6675 196.824 63.2096 197.915 65.6215L240.327 157.386Z" fill="#213257"/>
<path fill-rule="evenodd" clip-rule="evenodd" d="M557.939 137.195C562.909 145.825 569.643 152.693 578.105 157.761L578.136 157.779C586.65 162.741 596.212 165.194 606.747 165.194C617.153 165.194 626.592 162.739 634.98 157.774C643.452 152.837 650.132 146.094 654.986 137.577C659.965 128.922 662.574 119.257 662.843 108.65V16.6127C662.843 13.6379 661.929 10.9456 659.816 8.95469C657.81 6.9335 655.261 5.97015 652.407 5.97015C649.553 5.97015 647.004 6.93356 644.992 8.95481C642.878 10.9457 641.971 13.638 641.971 16.6127V65.5893C638.455 62.0442 634.365 59.0438 629.726 56.5882C622.383 52.5688 614.192 50.586 605.219 50.586C594.916 50.586 585.59 53.1155 577.32 58.2265C569.101 63.1773 562.563 69.9916 557.73 78.6167L557.713 78.6484C552.985 87.326 550.65 97.0651 550.65 107.793C550.65 118.657 553.052 128.475 557.921 137.164L557.939 137.195ZM637.589 88.6573C640.747 94.2603 642.353 100.613 642.353 107.793C642.353 115.112 640.741 121.528 637.589 127.123L637.565 127.166C634.508 132.802 630.293 137.284 624.878 140.645C619.661 143.836 613.649 145.467 606.747 145.467C599.989 145.467 593.964 143.844 588.6 140.638C583.183 137.272 578.896 132.779 575.71 127.123C572.558 121.528 570.948 115.112 570.948 107.793C570.948 100.613 572.554 94.2603 575.71 88.6573L575.723 88.6334C578.912 82.8519 583.191 78.3791 588.579 75.154C593.948 71.9403 599.977 70.3122 606.747 70.3122C613.649 70.3122 619.667 71.9451 624.884 75.1391L624.914 75.154C630.287 78.3731 634.496 82.8328 637.553 88.591L637.589 88.6573Z" fill="#213257"/>
<path d="M512.536 83.7708L512.44 83.6633C510.566 81.5612 509.753 78.8926 509.753 75.9654V64.3738C509.753 61.4597 510.562 58.7809 512.538 56.7661C514.587 54.6762 517.239 53.7314 520.189 53.7314C523.015 53.7314 525.548 54.6814 527.46 56.765C529.538 58.7509 530.434 61.4233 530.434 64.3738V75.9654C530.434 78.9732 529.508 81.6783 527.458 83.7678C525.514 85.7505 522.975 86.6078 520.189 86.6078C517.319 86.6078 514.702 85.7791 512.641 83.8681L512.536 83.7708Z" fill="#37D5C7"/>
</svg>
